<?xml version="1.0" encoding="utf-8"?>
<!-- Svg Vector Icons : http://www.onlinewebfonts.com/icon -->
<!DOCTYPE svg PUBLIC "-//W3C//DTD SVG 1.1//EN" "http://www.w3.org/Graphics/SVG/1.1/DTD/svg11.dtd">
<svg version="1.1" xmlns="http://www.w3.org/2000/svg" xmlns:xlink="http://www.w3.org/1999/xlink" x="0px" y="0px" viewBox="0 0 256 256" enable-background="new 0 0 256 256" xml:space="preserve">
<metadata> Svg Vector Icons : http://www.onlinewebfonts.com/icon </metadata>
<g><g><g><path fill="#000000" d="M41.7,22.4c-16.4,10-28.2,31.1-31.2,55.8c-0.6,5.2-0.6,18,0,23.2c1.8,14.1,6.6,27.8,13.6,38.3c3.7,5.6,10.7,12.8,15.9,16.2c2.3,1.6,4.5,2.7,4.8,2.7s2.4-3.1,4.6-6.8l4.1-6.6l-2.9-1.6c-3.7-2.1-10.4-8.7-13.4-13.3c-6.8-10.6-10.5-22.8-11-37c-0.6-17.7,3-32,11.5-44.8c3-4.6,9.5-10.8,13.2-12.8c1.5-0.8,2.7-1.5,2.7-1.7c0-0.4-8-13.1-8.4-13.4C44.9,20.6,43.4,21.3,41.7,22.4z"/><path fill="#000000" d="M209.4,22.6c-0.8,1.2-2.7,4.3-4.3,6.8c-2.5,3.9-2.7,4.5-2.1,5c7.7,4.8,11.4,8.4,15.5,14.6c17.3,26,14.4,68.6-6.1,89c-1.9,1.9-4.9,4.3-6.6,5.3c-1.7,1-3.1,1.9-3.1,2.1c0,0.5,8.1,13.4,8.5,13.4c0.2,0,1.6-0.8,3.1-1.7c24-14.4,36.8-51.9,29.8-86.9c-4-20-14.4-37.3-27.9-46.4C210.6,20,211,20,209.4,22.6z"/><path fill="#000000" d="M59.1,49.7C51.7,56.5,46,67.2,43.7,78.5c-1.1,5.7-1.1,16.9,0,22.6c1.8,8.7,5.6,17.3,10.8,23.8c2.2,2.7,6.3,6.8,7,6.8c0.3,0,8.1-12.5,8.1-13.1c0-0.2-1-1.6-2.2-3c-2.9-3.5-6.1-10.2-7.4-15.4c-1.5-6-1.5-14.9,0-20.8c1.4-5.5,4.5-12,7.8-15.9l2.6-3.1l-4.1-6.4c-2.2-3.6-4.2-6.5-4.4-6.5C61.8,47.4,60.5,48.5,59.1,49.7z"/><path fill="#000000" d="M192.8,48.6c-0.5,0.8-2.4,3.7-4.2,6.5l-3.3,5.3l2.1,2.3c10.3,11.4,12.6,31.1,5.3,46c-1,2.1-2.9,5.1-4.2,6.7c-1.3,1.6-2.4,3-2.4,3.2c0,0.4,7.1,11.8,7.9,12.6c0.5,0.6,1,0.3,3.3-1.9c10.1-9.8,15.8-24.2,15.8-39.5c0-11.4-3.1-22.4-8.9-31.4c-1.8-2.8-9.3-11-10-11C193.9,47.4,193.4,47.9,192.8,48.6z"/><path fill="#000000" d="M87.2,93.3v10.4H103h15.9v23.9v23.9h-8.8h-8.8v41.9v41.9h27.9h27.9v-41.9v-41.9h-8.8h-8.8v-23.9v-23.9l15.8-0.1l15.7-0.1V93.3V83.1l-42-0.1l-42-0.1L87.2,93.3L87.2,93.3z"/></g></g></g>
</svg>