<svg xmlns="http://www.w3.org/2000/svg" xmlns:xlink="http://www.w3.org/1999/xlink" width="1080" zoomAndPan="magnify" viewBox="0 0 810 809.999993" height="1080" preserveAspectRatio="xMidYMid meet" version="1.0"><defs><clipPath id="c2a0725bcc"><path d="M 24.273438 132 L 785.523438 132 L 785.523438 678.851562 L 24.273438 678.851562 Z M 24.273438 132 " clip-rule="nonzero"/></clipPath></defs><path fill="#dadbd7" d="M 771.578125 621.96875 L 558.207031 670.945312 C 546.496094 673.632812 534.34375 673.636719 522.636719 670.964844 L 285.851562 616.898438 C 273.839844 614.160156 261.34375 614.507812 249.496094 617.910156 L 48.859375 675.5625 C 37.859375 678.722656 26.933594 670.335938 26.933594 658.730469 L 26.933594 214.953125 C 26.933594 207.121094 32.0625 200.246094 39.492188 198.125 L 250.636719 137.746094 C 262.503906 134.351562 275.015625 134.023438 287.039062 136.792969 L 521.441406 190.78125 C 533.167969 193.480469 545.34375 193.492188 557.078125 190.808594 L 765.203125 143.265625 C 774.257812 141.203125 782.863281 148.1875 782.863281 157.597656 L 782.863281 607.644531 C 782.863281 614.507812 778.171875 620.453125 771.578125 621.96875 " fill-opacity="1" fill-rule="nonzero"/><path fill="#efefed" d="M 540.617188 192.789062 C 534.1875 192.894531 527.75 192.226562 521.441406 190.773438 L 287.039062 136.789062 C 283.828125 136.046875 280.582031 135.539062 277.324219 135.238281 L 277.324219 615.484375 C 280.183594 615.785156 283.03125 616.253906 285.855469 616.898438 L 522.636719 670.964844 C 528.554688 672.316406 534.589844 672.980469 540.617188 672.960938 L 540.617188 192.789062 " fill-opacity="1" fill-rule="nonzero"/><g clip-path="url(#c2a0725bcc)"><path fill="#000000" d="M 270.695312 137.570312 C 264.175781 137.570312 257.65625 138.472656 251.363281 140.273438 L 40.214844 200.652344 C 33.941406 202.441406 29.5625 208.320312 29.5625 214.953125 L 29.5625 658.738281 C 29.5625 663.492188 31.714844 667.839844 35.472656 670.667969 C 39.132812 673.429688 43.75 674.292969 48.132812 673.03125 L 248.773438 615.378906 C 261.007812 611.863281 274.03125 611.5 286.4375 614.335938 L 523.21875 668.402344 C 534.472656 670.96875 546.375 670.964844 557.621094 668.382812 L 770.992188 619.40625 C 776.4375 618.15625 780.238281 613.316406 780.238281 607.640625 L 780.238281 157.597656 C 780.238281 153.863281 778.582031 150.40625 775.695312 148.109375 C 772.882812 145.859375 769.273438 145.03125 765.792969 145.824219 L 557.660156 193.375 C 545.613281 196.121094 532.890625 196.109375 520.851562 193.339844 L 286.449219 139.355469 C 281.273438 138.167969 275.984375 137.570312 270.695312 137.570312 Z M 44.117188 678.863281 C 39.910156 678.863281 35.792969 677.496094 32.308594 674.871094 C 27.222656 671.039062 24.304688 665.15625 24.304688 658.738281 L 24.304688 214.953125 C 24.304688 205.988281 30.253906 198.027344 38.769531 195.59375 L 249.917969 135.21875 C 262.171875 131.714844 275.214844 131.367188 287.628906 134.226562 L 522.023438 188.210938 C 533.296875 190.808594 545.21875 190.820312 556.484375 188.242188 L 764.621094 140.703125 C 769.675781 139.546875 774.90625 140.746094 778.96875 143.992188 C 783.117188 147.300781 785.492188 152.257812 785.492188 157.597656 L 785.492188 607.640625 C 785.492188 615.78125 780.011719 622.730469 772.164062 624.535156 L 771.582031 621.96875 L 772.164062 624.535156 L 558.800781 673.503906 C 546.773438 676.265625 534.074219 676.273438 522.050781 673.523438 L 285.269531 619.464844 C 273.726562 616.828125 261.609375 617.164062 250.222656 620.4375 L 49.582031 678.085938 C 47.773438 678.605469 45.9375 678.863281 44.117188 678.863281 " fill-opacity="1" fill-rule="nonzero"/></g><path fill="#88e5e1" d="M 736.320312 598.433594 L 543.46875 642.078125 C 532.886719 644.472656 521.898438 644.476562 511.316406 642.097656 L 297.300781 591.476562 C 286.445312 589.027344 275.148438 582.21875 264.441406 585.25 L 73.195312 639.433594 C 68.21875 640.84375 63.277344 637.105469 63.277344 631.929688 L 63.277344 235.691406 C 63.277344 228.710938 67.914062 222.582031 74.628906 220.6875 L 265.472656 166.878906 C 276.199219 163.855469 287.507812 163.5625 298.371094 166.027344 L 510.230469 221.839844 C 520.835938 224.242188 531.839844 224.253906 542.445312 221.863281 L 730.5625 179.492188 C 738.742188 177.652344 746.519531 183.878906 746.519531 192.269531 L 746.519531 585.664062 C 746.519531 591.777344 742.289062 597.082031 736.320312 598.433594 " fill-opacity="1" fill-rule="nonzero"/><path fill="#9aefe8" d="M 396.679688 317.304688 L 485.417969 216.8125 L 308.359375 184.960938 C 297.492188 182.496094 286.183594 182.785156 275.460938 185.808594 L 84.613281 239.625 C 77.898438 241.511719 73.261719 247.644531 73.261719 254.621094 L 64.472656 546.785156 L 154.933594 442.207031 C 164.210938 430.53125 180 426.246094 193.90625 431.632812 L 232.515625 446.589844 C 253.523438 454.730469 276.503906 440.589844 278.730469 418.15625 L 286.785156 336.851562 C 289.707031 307.390625 326.183594 295.394531 346.003906 317.382812 C 359.5625 332.425781 383.164062 332.386719 396.679688 317.304688 " fill-opacity="1" fill-rule="nonzero"/><path fill="#79d8d1" d="M 281.457031 578.867188 L 503.023438 631.277344 C 513.984375 633.742188 525.347656 633.738281 536.304688 631.253906 L 735.957031 586.066406 C 742.132812 584.675781 746.519531 579.183594 746.519531 572.851562 L 746.519531 393.148438 L 633.339844 393.148438 C 608.253906 393.148438 583.359375 397.402344 559.703125 405.734375 L 338.394531 483.652344 C 327.144531 487.613281 324.351562 502.246094 333.351562 510.074219 C 345.0625 520.269531 336.273438 539.453125 320.910156 537.222656 L 244.230469 526.085938 C 223.324219 523.050781 202.144531 529.414062 186.371094 543.472656 L 95.382812 634.613281 L 244.339844 581.511719 C 255.425781 578.375 270.21875 576.335938 281.457031 578.867188 " fill-opacity="1" fill-rule="nonzero"/><path fill="#000000" d="M 270.167969 581.855469 C 276.242188 581.855469 282.269531 583.921875 288.152344 585.941406 C 291.527344 587.097656 294.714844 588.195312 297.878906 588.90625 L 511.921875 639.539062 C 522.035156 641.816406 532.75 641.804688 542.886719 639.511719 L 735.742188 595.863281 L 736.328125 598.429688 L 735.742188 595.863281 C 740.546875 594.78125 743.890625 590.585938 743.890625 585.664062 L 743.890625 192.265625 C 743.890625 189.066406 742.464844 186.09375 739.964844 184.097656 C 737.476562 182.097656 734.253906 181.355469 731.144531 182.054688 L 543.023438 224.429688 C 532.101562 226.890625 520.566406 226.878906 509.652344 224.402344 L 509.570312 224.382812 L 297.746094 168.585938 C 287.355469 166.226562 276.445312 166.519531 266.1875 169.40625 L 75.339844 223.214844 C 69.785156 224.78125 65.902344 229.914062 65.902344 235.683594 L 65.902344 631.441406 C 65.902344 633.191406 66.707031 634.800781 68.101562 635.855469 C 69.5 636.914062 71.265625 637.246094 72.953125 636.765625 L 263.726562 582.714844 C 265.875 582.113281 268.027344 581.855469 270.167969 581.855469 Z M 527.355469 646.496094 C 521.769531 646.496094 516.175781 645.886719 510.738281 644.664062 L 296.699219 594.03125 C 293.28125 593.261719 289.808594 592.070312 286.445312 590.917969 C 278.921875 588.332031 271.816406 585.894531 265.15625 587.78125 L 74.382812 641.832031 C 71.097656 642.757812 67.652344 642.109375 64.933594 640.054688 C 62.210938 637.992188 60.648438 634.851562 60.648438 631.441406 L 60.648438 235.683594 C 60.648438 227.5625 66.101562 220.355469 73.914062 218.15625 L 264.761719 164.34375 C 275.875 161.210938 287.695312 160.90625 298.953125 163.464844 L 299.042969 163.484375 L 510.859375 219.28125 C 521.003906 221.578125 531.71875 221.582031 541.871094 219.296875 L 729.988281 176.925781 C 734.671875 175.875 739.507812 176.988281 743.253906 179.992188 C 747 182.988281 749.148438 187.464844 749.148438 192.265625 L 749.148438 585.664062 C 749.148438 593.058594 744.113281 599.363281 736.902344 600.992188 L 544.050781 644.640625 C 538.585938 645.882812 532.972656 646.496094 527.355469 646.496094 " fill-opacity="1" fill-rule="nonzero"/><path fill="#a3e589" d="M 297.300781 591.476562 L 511.316406 642.097656 C 521.898438 644.476562 532.886719 644.472656 543.46875 642.078125 L 736.320312 598.433594 C 742.289062 597.082031 746.519531 591.777344 746.519531 585.664062 L 746.519531 412.082031 L 637.191406 412.082031 C 612.96875 412.082031 588.914062 416.191406 566.070312 424.238281 L 352.296875 499.5 C 341.429688 503.328125 338.734375 517.464844 347.425781 525.027344 C 358.742188 534.871094 350.246094 553.402344 335.410156 551.25 L 261.339844 540.488281 C 241.148438 537.554688 220.691406 543.703125 205.453125 557.28125 L 131.953125 622.789062 L 264.441406 585.25 C 275.148438 582.21875 286.445312 589.027344 297.300781 591.476562 " fill-opacity="1" fill-rule="nonzero"/><path fill="#91d372" d="M 722.949219 412.082031 L 722.949219 562.074219 C 722.949219 568.191406 718.714844 573.5 712.75 574.84375 L 519.898438 618.492188 C 509.3125 620.890625 498.335938 620.894531 487.746094 618.511719 L 273.730469 567.886719 C 262.871094 565.441406 251.578125 558.628906 240.871094 561.664062 L 181.738281 578.414062 L 131.953125 622.789062 L 264.441406 585.25 C 275.148438 582.21875 286.445312 589.027344 297.300781 591.476562 L 511.316406 642.097656 C 521.898438 644.476562 532.886719 644.472656 543.46875 642.078125 L 736.320312 598.433594 C 742.289062 597.082031 746.519531 591.777344 746.519531 585.664062 L 746.519531 412.082031 L 722.949219 412.082031 " fill-opacity="1" fill-rule="nonzero"/><path fill="#a3e589" d="M 357.78125 353.976562 L 359.789062 354.035156 C 366.246094 354.21875 372.246094 357.398438 376.019531 362.644531 L 384.566406 374.527344 C 389.03125 380.730469 389.71875 388.886719 386.367188 395.753906 L 368.472656 432.378906 C 366.351562 436.71875 362.785156 440.183594 358.382812 442.171875 L 324.832031 457.335938 C 309.871094 464.089844 293.367188 451.597656 295.800781 435.355469 C 296.816406 428.597656 301.085938 422.773438 307.222656 419.78125 L 328.039062 409.636719 C 337.492188 405.03125 342 394.070312 338.527344 384.140625 L 337.625 381.5625 C 332.824219 367.835938 343.257812 353.558594 357.78125 353.976562 " fill-opacity="1" fill-rule="nonzero"/><path fill="#91d372" d="M 384.566406 374.527344 L 376.019531 362.644531 C 374.0625 359.929688 371.503906 357.769531 368.601562 356.289062 L 374.402344 364.359375 C 378.867188 370.558594 379.558594 378.71875 376.203125 385.585938 L 358.308594 422.210938 C 356.1875 426.550781 352.621094 430.015625 348.21875 432.003906 L 314.671875 447.167969 C 308.742188 449.84375 302.578125 449.492188 297.441406 447.089844 C 301.9375 456.828125 313.800781 462.320312 324.832031 457.335938 L 358.382812 442.171875 C 362.785156 440.183594 366.351562 436.71875 368.472656 432.378906 L 386.367188 395.753906 C 389.71875 388.886719 389.03125 380.730469 384.566406 374.527344 " fill-opacity="1" fill-rule="nonzero"/><path fill="#a3e589" d="M 113.527344 580.496094 C 104.671875 577.546875 100.34375 567.554688 104.238281 559.070312 L 131.519531 499.660156 C 135.890625 490.136719 148.195312 487.503906 156.082031 494.40625 L 172.628906 508.898438 C 177.679688 513.320312 179.355469 520.46875 176.800781 526.671875 L 165.382812 554.421875 C 163.988281 557.808594 161.457031 560.597656 158.222656 562.308594 L 125.8125 579.484375 C 122.03125 581.484375 117.585938 581.855469 113.527344 580.496094 " fill-opacity="1" fill-rule="nonzero"/><path fill="#91d372" d="M 172.628906 508.898438 L 165.871094 502.980469 C 168.113281 507.0625 168.484375 512.027344 166.640625 516.503906 L 155.222656 544.253906 C 153.828125 547.636719 151.292969 550.429688 148.0625 552.144531 L 115.652344 569.3125 C 111.925781 571.289062 107.5625 571.671875 103.550781 570.390625 C 105.011719 574.96875 108.558594 578.839844 113.527344 580.496094 C 117.585938 581.855469 122.03125 581.484375 125.8125 579.484375 L 158.222656 562.308594 C 161.457031 560.597656 163.988281 557.808594 165.382812 554.421875 L 176.800781 526.671875 C 179.355469 520.46875 177.679688 513.320312 172.628906 508.898438 " fill-opacity="1" fill-rule="nonzero"/><path fill="#a3e589" d="M 746.519531 344.707031 L 746.519531 184.296875 C 746.519531 179.992188 742.527344 176.796875 738.335938 177.746094 L 572.597656 215.070312 L 551.332031 287.714844 C 548.453125 297.546875 556.136719 307.289062 566.367188 306.769531 L 647.65625 302.632812 C 657.253906 302.140625 664.789062 310.757812 663.039062 320.210938 L 659.964844 336.835938 C 658.121094 346.8125 666.566406 355.679688 676.617188 354.296875 L 746.519531 344.707031 " fill-opacity="1" fill-rule="nonzero"/><path fill="#91d372" d="M 704.527344 326.371094 C 694.480469 327.75 686.027344 318.886719 687.871094 308.910156 L 690.949219 292.285156 C 692.699219 282.824219 685.160156 274.21875 675.5625 274.703125 L 594.277344 278.839844 C 584.046875 279.359375 576.363281 269.625 579.242188 259.785156 L 593.722656 210.316406 L 572.597656 215.070312 L 551.332031 287.714844 C 548.453125 297.546875 556.136719 307.289062 566.367188 306.769531 L 647.65625 302.632812 C 657.253906 302.140625 664.789062 310.757812 663.039062 320.210938 L 659.964844 336.835938 C 658.121094 346.8125 666.566406 355.679688 676.617188 354.296875 L 746.519531 344.707031 L 746.519531 320.609375 L 704.527344 326.371094 " fill-opacity="1" fill-rule="nonzero"/><path fill="#000000" d="M 270.167969 581.855469 C 276.242188 581.855469 282.269531 583.921875 288.152344 585.941406 C 291.527344 587.097656 294.714844 588.195312 297.878906 588.90625 L 297.90625 588.914062 L 511.921875 639.539062 C 522.035156 641.816406 532.75 641.804688 542.886719 639.511719 L 735.742188 595.863281 C 740.546875 594.78125 743.890625 590.585938 743.890625 585.664062 L 743.890625 414.710938 L 637.191406 414.710938 C 613.203125 414.710938 589.566406 418.75 566.941406 426.71875 L 353.171875 501.980469 C 348.960938 503.460938 345.949219 506.964844 345.109375 511.351562 C 344.273438 515.742188 345.785156 520.109375 349.152344 523.042969 C 355.210938 528.308594 356.957031 536.433594 353.613281 543.734375 C 350.269531 551.03125 342.980469 555.003906 335.035156 553.847656 L 260.964844 543.09375 C 241.492188 540.265625 221.898438 546.152344 207.203125 559.246094 L 142.246094 617.140625 L 263.726562 582.714844 C 265.875 582.113281 268.027344 581.855469 270.167969 581.855469 M 527.355469 646.496094 C 521.769531 646.496094 516.175781 645.886719 510.738281 644.664062 L 296.710938 594.035156 C 293.269531 593.257812 289.800781 592.070312 286.445312 590.917969 C 278.921875 588.332031 271.816406 585.894531 265.15625 587.78125 L 132.671875 625.316406 C 131.492188 625.648438 130.238281 625.121094 129.652344 624.050781 C 129.0625 622.976562 129.292969 621.636719 130.207031 620.820312 L 203.707031 555.320312 C 219.5625 541.1875 240.710938 534.835938 261.71875 537.886719 L 335.789062 548.644531 C 342.5625 549.628906 347.050781 545.433594 348.835938 541.542969 C 350.621094 537.648438 350.871094 531.503906 345.703125 527.007812 C 340.90625 522.839844 338.753906 516.617188 339.949219 510.371094 C 341.140625 504.121094 345.429688 499.128906 351.425781 497.019531 L 565.195312 421.757812 C 588.382812 413.589844 612.609375 409.453125 637.191406 409.453125 L 746.523438 409.453125 C 747.96875 409.453125 749.148438 410.628906 749.148438 412.082031 L 749.148438 585.664062 C 749.148438 593.058594 744.113281 599.363281 736.902344 600.992188 L 544.050781 644.640625 C 538.585938 645.882812 532.972656 646.496094 527.355469 646.496094 " fill-opacity="1" fill-rule="nonzero"/><path fill="#a3e589" d="M 386.695312 298.371094 L 465.761719 210.125 L 298.375 166.027344 C 287.507812 163.5625 276.199219 163.851562 265.472656 166.875 L 74.628906 220.691406 C 67.914062 222.582031 63.277344 228.710938 63.277344 235.6875 L 63.277344 526.011719 L 144.945312 423.273438 C 154.226562 411.597656 170.015625 407.3125 183.917969 412.699219 L 222.527344 427.65625 C 243.539062 435.796875 266.519531 421.65625 268.742188 399.222656 L 276.800781 317.917969 C 279.71875 288.457031 316.199219 276.460938 336.015625 298.449219 C 349.578125 313.492188 373.179688 313.453125 386.695312 298.371094 " fill-opacity="1" fill-rule="nonzero"/><path fill="#b5ef9a" d="M 82.78125 255.199219 C 82.78125 248.222656 87.417969 242.09375 94.128906 240.199219 L 284.976562 186.394531 C 295.699219 183.367188 307.011719 183.078125 317.875 185.546875 L 465.761719 210.125 L 298.375 166.027344 C 287.507812 163.5625 276.199219 163.851562 265.472656 166.875 L 74.628906 220.691406 C 67.914062 222.578125 63.277344 228.710938 63.277344 235.6875 L 63.277344 526.011719 L 82.78125 255.199219 " fill-opacity="1" fill-rule="nonzero"/><path fill="#91d372" d="M 424.730469 199.316406 L 359.953125 271.609375 C 346.4375 286.695312 322.832031 286.730469 309.273438 271.683594 C 289.457031 249.699219 252.976562 261.695312 250.058594 291.160156 L 242 372.464844 C 239.773438 394.894531 216.796875 409.03125 195.789062 400.894531 L 157.175781 385.9375 C 143.269531 380.550781 127.484375 384.839844 118.203125 396.515625 L 63.277344 465.609375 L 63.277344 526.011719 L 144.945312 423.273438 C 154.226562 411.597656 170.015625 407.3125 183.917969 412.699219 L 222.527344 427.65625 C 243.539062 435.796875 266.519531 421.65625 268.742188 399.222656 L 276.800781 317.917969 C 279.71875 288.457031 316.199219 276.460938 336.015625 298.449219 C 349.578125 313.492188 373.179688 313.453125 386.695312 298.371094 L 465.761719 210.125 L 424.730469 199.316406 " fill-opacity="1" fill-rule="nonzero"/><path fill="#000000" d="M 283.597656 167.007812 C 277.726562 167.007812 271.855469 167.808594 266.1875 169.410156 L 75.339844 223.21875 C 69.785156 224.785156 65.902344 229.914062 65.902344 235.6875 L 65.902344 518.480469 L 142.890625 421.632812 C 152.9375 408.988281 169.808594 404.414062 184.863281 410.246094 L 223.476562 425.203125 C 232.71875 428.78125 242.859375 427.859375 251.304688 422.664062 C 259.746094 417.46875 265.148438 408.832031 266.128906 398.960938 L 274.183594 317.660156 C 275.640625 302.976562 285.246094 290.996094 299.25 286.394531 C 313.257812 281.785156 328.09375 285.730469 337.96875 296.6875 C 343.921875 303.292969 352.433594 307.078125 361.320312 307.078125 L 361.367188 307.078125 C 370.273438 307.0625 378.792969 303.25 384.738281 296.613281 L 460.9375 211.570312 L 297.746094 168.585938 C 293.101562 167.53125 288.351562 167.007812 283.597656 167.007812 Z M 63.277344 528.640625 C 62.984375 528.640625 62.695312 528.59375 62.410156 528.492188 C 61.355469 528.125 60.648438 527.125 60.648438 526.011719 L 60.648438 235.6875 C 60.648438 227.566406 66.101562 220.355469 73.914062 218.15625 L 264.757812 164.34375 C 275.875 161.210938 287.695312 160.90625 298.953125 163.46875 L 299.042969 163.488281 L 466.429688 207.574219 C 467.320312 207.8125 468.019531 208.484375 468.28125 209.367188 C 468.542969 210.242188 468.332031 211.195312 467.71875 211.878906 L 388.652344 300.125 C 381.714844 307.867188 371.773438 312.320312 361.378906 312.339844 L 361.320312 312.339844 C 350.945312 312.339844 341.015625 307.921875 334.066406 300.210938 C 325.605469 290.820312 312.894531 287.441406 300.890625 291.390625 C 288.890625 295.335938 280.664062 305.601562 279.414062 318.179688 L 271.359375 399.480469 C 270.21875 411 263.910156 421.082031 254.058594 427.144531 C 244.203125 433.203125 232.367188 434.289062 221.582031 430.105469 L 182.96875 415.15625 C 170.066406 410.15625 155.613281 414.074219 147.003906 424.910156 L 65.332031 527.644531 C 64.824219 528.289062 64.0625 528.640625 63.277344 528.640625 " fill-opacity="1" fill-rule="nonzero"/><path fill="#000000" d="M 357.160156 356.597656 C 351.328125 356.597656 346.039062 359.277344 342.578125 364.015625 C 339.007812 368.902344 338.105469 374.980469 340.105469 380.6875 L 341.007812 383.273438 C 344.917969 394.457031 339.839844 406.808594 329.191406 412 L 308.375 422.148438 C 303.011719 424.761719 299.285156 429.84375 298.402344 435.746094 C 297.402344 442.40625 300.011719 448.808594 305.378906 452.875 C 310.746094 456.941406 317.613281 457.707031 323.75 454.933594 L 357.300781 439.773438 C 361.132812 438.042969 364.261719 435.007812 366.113281 431.21875 L 384.003906 394.601562 C 386.941406 388.59375 386.339844 381.488281 382.433594 376.0625 L 373.886719 364.1875 C 370.613281 359.636719 365.316406 356.824219 359.714844 356.660156 L 357.707031 356.605469 C 357.523438 356.601562 357.339844 356.597656 357.160156 356.597656 Z M 316.226562 461.847656 C 311.269531 461.847656 306.386719 460.230469 302.207031 457.066406 C 295.28125 451.820312 291.914062 443.558594 293.203125 434.964844 C 294.34375 427.351562 299.15625 420.792969 306.074219 417.421875 L 326.890625 407.269531 C 335.140625 403.246094 339.078125 393.675781 336.046875 385.007812 L 335.144531 382.429688 C 332.601562 375.167969 333.796875 367.125 338.335938 360.914062 C 342.871094 354.703125 350.171875 351.125 357.855469 351.347656 L 359.863281 351.40625 C 367.089844 351.609375 373.925781 355.238281 378.152344 361.109375 L 386.699219 372.988281 C 391.738281 379.988281 392.515625 389.15625 388.726562 396.910156 L 370.832031 433.535156 C 368.449219 438.414062 364.410156 442.335938 359.464844 444.570312 L 325.914062 459.730469 C 322.773438 461.148438 319.484375 461.847656 316.226562 461.847656 " fill-opacity="1" fill-rule="nonzero"/><path fill="#000000" d="M 114.355469 578.003906 C 117.722656 579.125 121.449219 578.820312 124.582031 577.15625 L 156.992188 559.988281 C 159.679688 558.566406 161.796875 556.230469 162.953125 553.421875 L 174.371094 525.671875 C 176.5 520.503906 175.101562 514.5625 170.898438 510.878906 L 154.347656 496.386719 C 151.222656 493.652344 147.097656 492.574219 143.03125 493.445312 C 138.96875 494.316406 135.640625 496.984375 133.90625 500.761719 L 106.628906 560.167969 C 105.082031 563.535156 105.039062 567.417969 106.511719 570.816406 C 107.984375 574.214844 110.84375 576.832031 114.355469 578.003906 Z M 118.464844 583.925781 C 116.515625 583.925781 114.5625 583.617188 112.695312 582.996094 L 112.695312 582.988281 C 107.765625 581.351562 103.757812 577.671875 101.691406 572.910156 C 99.625 568.136719 99.683594 562.695312 101.851562 557.976562 L 129.132812 498.566406 C 131.5625 493.265625 136.230469 489.519531 141.933594 488.300781 C 147.636719 487.082031 153.421875 488.585938 157.8125 492.429688 L 174.359375 506.917969 C 180.257812 512.082031 182.214844 520.425781 179.230469 527.671875 L 167.8125 555.421875 C 166.191406 559.367188 163.222656 562.644531 159.453125 564.636719 L 127.042969 581.804688 C 124.386719 583.210938 121.433594 583.925781 118.464844 583.925781 " fill-opacity="1" fill-rule="nonzero"/><path fill="#000000" d="M 746.523438 344.707031 L 746.53125 344.707031 Z M 640.695312 300.382812 C 647.589844 300.382812 654.070312 303.316406 658.644531 308.539062 C 663.480469 314.070312 665.492188 321.394531 664.15625 328.632812 C 663.058594 334.585938 664.816406 340.515625 668.996094 344.894531 C 673.175781 349.269531 679 351.3125 685 350.496094 L 743.890625 342.414062 L 743.890625 182.183594 C 743.890625 181.453125 743.566406 180.769531 742.996094 180.308594 C 742.421875 179.851562 741.679688 179.679688 740.96875 179.84375 L 574.6875 217.296875 L 556.378906 279.832031 C 554.660156 285.699219 555.851562 291.820312 559.636719 296.621094 C 563.421875 301.421875 569.085938 303.996094 575.203125 303.683594 L 639.460938 300.417969 C 639.875 300.394531 640.289062 300.382812 640.695312 300.382812 Z M 682.378906 355.929688 C 675.894531 355.929688 669.769531 353.324219 665.191406 348.523438 C 659.832031 342.90625 657.574219 335.308594 658.988281 327.675781 C 660.035156 322.03125 658.460938 316.320312 654.683594 312.003906 C 650.910156 307.683594 645.453125 305.378906 639.726562 305.664062 L 575.46875 308.9375 C 567.652344 309.335938 560.367188 306.03125 555.507812 299.878906 C 550.652344 293.726562 549.132812 285.875 551.335938 278.351562 L 570.078125 214.332031 C 570.34375 213.417969 571.089844 212.71875 572.019531 212.503906 L 739.816406 174.714844 C 742.09375 174.203125 744.453125 174.738281 746.273438 176.203125 C 748.101562 177.667969 749.148438 179.84375 749.148438 182.183594 L 749.148438 344.707031 C 749.148438 346.019531 748.183594 347.136719 746.882812 347.3125 L 685.714844 355.699219 C 684.59375 355.855469 683.484375 355.929688 682.378906 355.929688 " fill-opacity="1" fill-rule="nonzero"/><path fill="#fc7043" d="M 633.863281 338.457031 C 633.863281 392.25 536.53125 526.9375 536.53125 526.9375 C 536.53125 526.9375 439.195312 392.25 439.195312 338.457031 C 439.195312 284.664062 482.777344 241.058594 536.53125 241.058594 C 590.285156 241.058594 633.863281 284.664062 633.863281 338.457031 " fill-opacity="1" fill-rule="nonzero"/><path fill="#92ce7b" d="M 535.835938 528.601562 C 529.875 527.363281 502.523438 496.636719 475.40625 458.941406 L 488.703125 454.261719 C 489.21875 455.113281 489.730469 455.960938 490.246094 456.800781 C 507.671875 486.347656 525.390625 513.347656 535.835938 528.601562 " fill-opacity="1" fill-rule="nonzero"/><path fill="#7aceca" d="M 462.253906 440.039062 C 437.210938 402.796875 415.542969 362.585938 415.542969 338.457031 C 415.542969 284.664062 459.121094 241.058594 512.878906 241.058594 C 516.878906 241.058594 520.8125 241.304688 524.679688 241.773438 C 478.25 247.410156 441.90625 285.757812 439.34375 333.097656 C 439.324219 333.386719 439.308594 333.667969 439.296875 333.960938 L 439.296875 333.964844 C 439.292969 334.007812 439.292969 334.054688 439.289062 334.101562 L 439.289062 334.105469 C 439.289062 334.152344 439.289062 334.203125 439.285156 334.25 L 439.285156 334.253906 C 439.277344 334.445312 439.269531 334.632812 439.261719 334.820312 C 439.261719 334.820312 439.261719 334.828125 439.261719 334.832031 C 439.261719 334.875 439.257812 334.921875 439.257812 334.96875 C 439.257812 334.96875 439.257812 334.972656 439.257812 334.972656 C 439.257812 335.019531 439.25 335.0625 439.25 335.113281 C 439.25 335.117188 439.25 335.117188 439.25 335.121094 C 439.25 335.167969 439.246094 335.210938 439.246094 335.257812 C 439.246094 335.257812 439.246094 335.261719 439.246094 335.269531 C 439.246094 335.316406 439.242188 335.359375 439.242188 335.40625 L 439.242188 335.410156 C 439.242188 335.507812 439.234375 335.59375 439.234375 335.691406 C 439.234375 335.691406 439.234375 335.695312 439.234375 335.703125 C 439.230469 335.742188 439.230469 335.789062 439.230469 335.832031 C 439.230469 335.835938 439.230469 335.84375 439.230469 335.847656 C 439.230469 335.890625 439.226562 335.929688 439.226562 335.972656 C 439.226562 335.980469 439.226562 335.988281 439.226562 335.996094 C 439.226562 336.035156 439.226562 336.078125 439.21875 336.121094 C 439.21875 336.132812 439.21875 336.132812 439.21875 336.136719 C 439.21875 336.183594 439.21875 336.226562 439.21875 336.269531 C 439.21875 336.273438 439.21875 336.277344 439.21875 336.285156 C 439.21875 336.332031 439.214844 336.371094 439.214844 336.421875 L 439.214844 336.425781 C 439.214844 336.46875 439.214844 336.515625 439.214844 336.558594 C 439.214844 336.5625 439.214844 336.5625 439.214844 336.566406 C 439.214844 336.609375 439.210938 336.660156 439.210938 336.699219 C 439.210938 336.710938 439.210938 336.710938 439.210938 336.714844 C 439.210938 336.757812 439.210938 336.800781 439.210938 336.839844 C 439.210938 336.851562 439.210938 336.859375 439.210938 336.867188 C 439.210938 336.910156 439.203125 336.945312 439.203125 336.988281 C 439.203125 337 439.203125 337.003906 439.203125 337.011719 C 439.203125 337.054688 439.203125 337.09375 439.203125 337.136719 C 439.203125 337.148438 439.203125 337.152344 439.203125 337.160156 C 439.203125 337.203125 439.203125 337.246094 439.203125 337.289062 C 439.203125 337.289062 439.203125 337.300781 439.203125 337.300781 C 439.199219 337.347656 439.199219 337.394531 439.199219 337.433594 L 439.199219 337.441406 C 439.199219 337.480469 439.199219 337.53125 439.199219 337.578125 L 439.199219 337.582031 C 439.199219 337.628906 439.199219 337.671875 439.199219 337.722656 C 439.199219 337.726562 439.199219 337.726562 439.199219 337.734375 C 439.199219 337.777344 439.199219 337.816406 439.199219 337.863281 C 439.199219 337.867188 439.199219 337.875 439.199219 337.882812 C 439.199219 337.925781 439.199219 337.96875 439.195312 338.007812 C 439.195312 338.015625 439.195312 338.023438 439.195312 338.03125 C 439.195312 338.070312 439.195312 338.113281 439.195312 338.15625 C 439.195312 338.164062 439.195312 338.171875 439.195312 338.175781 C 439.195312 338.21875 439.195312 338.261719 439.195312 338.308594 C 439.195312 338.3125 439.195312 338.3125 439.195312 338.320312 C 439.195312 338.367188 439.195312 338.410156 439.195312 338.457031 C 439.195312 338.476562 439.195312 338.503906 439.195312 338.523438 C 439.230469 361.480469 456.9375 399.132812 477.242188 434.765625 L 462.253906 440.039062 " fill-opacity="1" fill-rule="nonzero"/><path fill="#6dc2bc" d="M 472.230469 454.488281 C 468.871094 449.753906 465.53125 444.921875 462.253906 440.039062 L 477.242188 434.765625 C 480.105469 439.785156 483.019531 444.769531 485.941406 449.660156 L 472.230469 454.488281 " fill-opacity="1" fill-rule="nonzero"/><path fill="#000000" d="M 475.40625 458.941406 C 474.34375 457.46875 473.285156 455.984375 472.230469 454.488281 L 485.941406 449.660156 C 486.859375 451.203125 487.785156 452.742188 488.703125 454.261719 L 475.40625 458.941406 " fill-opacity="1" fill-rule="nonzero"/><path fill="#e2653c" d="M 490.246094 456.800781 C 489.730469 455.960938 489.21875 455.113281 488.703125 454.261719 C 487.785156 452.742188 486.859375 451.203125 485.941406 449.660156 C 483.019531 444.769531 480.105469 439.785156 477.242188 434.765625 C 456.9375 399.132812 439.230469 361.480469 439.195312 338.523438 C 439.234375 363.675781 464.429688 413.035156 490.246094 456.800781 M 439.195312 338.457031 C 439.195312 338.410156 439.195312 338.367188 439.195312 338.320312 C 439.195312 338.363281 439.195312 338.414062 439.195312 338.457031 M 439.195312 338.308594 C 439.195312 338.261719 439.195312 338.21875 439.195312 338.175781 C 439.195312 338.21875 439.195312 338.261719 439.195312 338.308594 M 439.195312 338.15625 C 439.195312 338.113281 439.195312 338.070312 439.195312 338.03125 C 439.195312 338.070312 439.195312 338.113281 439.195312 338.15625 M 439.195312 338.007812 C 439.199219 337.96875 439.199219 337.925781 439.199219 337.882812 C 439.199219 337.925781 439.199219 337.96875 439.195312 338.007812 M 439.199219 337.863281 C 439.199219 337.816406 439.199219 337.777344 439.199219 337.734375 C 439.199219 337.777344 439.199219 337.820312 439.199219 337.863281 M 439.199219 337.722656 C 439.199219 337.671875 439.199219 337.628906 439.199219 337.582031 C 439.199219 337.628906 439.199219 337.671875 439.199219 337.722656 M 439.199219 337.578125 C 439.199219 337.53125 439.199219 337.480469 439.199219 337.441406 C 439.199219 337.488281 439.199219 337.53125 439.199219 337.578125 M 439.199219 337.433594 C 439.199219 337.394531 439.199219 337.347656 439.203125 337.300781 C 439.199219 337.347656 439.199219 337.394531 439.199219 337.433594 M 439.203125 337.289062 C 439.203125 337.246094 439.203125 337.203125 439.203125 337.160156 C 439.203125 337.203125 439.203125 337.246094 439.203125 337.289062 M 439.203125 337.136719 C 439.203125 337.09375 439.203125 337.054688 439.203125 337.011719 C 439.203125 337.054688 439.203125 337.09375 439.203125 337.136719 M 439.203125 336.988281 C 439.203125 336.945312 439.210938 336.910156 439.210938 336.867188 C 439.210938 336.910156 439.203125 336.945312 439.203125 336.988281 M 439.210938 336.839844 C 439.210938 336.800781 439.210938 336.757812 439.210938 336.714844 C 439.210938 336.757812 439.210938 336.800781 439.210938 336.839844 M 439.210938 336.699219 C 439.210938 336.660156 439.214844 336.609375 439.214844 336.566406 C 439.214844 336.617188 439.210938 336.660156 439.210938 336.699219 M 439.214844 336.558594 C 439.214844 336.515625 439.214844 336.46875 439.214844 336.425781 C 439.214844 336.46875 439.214844 336.515625 439.214844 336.558594 M 439.214844 336.421875 C 439.214844 336.371094 439.21875 336.332031 439.21875 336.285156 C 439.21875 336.332031 439.214844 336.371094 439.214844 336.421875 M 439.21875 336.269531 C 439.21875 336.226562 439.21875 336.183594 439.21875 336.136719 C 439.21875 336.183594 439.21875 336.226562 439.21875 336.269531 M 439.21875 336.121094 C 439.226562 336.078125 439.226562 336.035156 439.226562 335.996094 C 439.226562 336.035156 439.226562 336.078125 439.21875 336.121094 M 439.226562 335.972656 C 439.226562 335.929688 439.230469 335.890625 439.230469 335.847656 C 439.230469 335.890625 439.226562 335.929688 439.226562 335.972656 M 439.230469 335.832031 C 439.230469 335.789062 439.230469 335.742188 439.234375 335.703125 C 439.230469 335.742188 439.230469 335.785156 439.230469 335.832031 M 439.234375 335.691406 C 439.234375 335.59375 439.242188 335.507812 439.242188 335.410156 C 439.242188 335.5 439.234375 335.59375 439.234375 335.691406 M 439.242188 335.40625 C 439.242188 335.359375 439.246094 335.316406 439.246094 335.269531 C 439.246094 335.3125 439.242188 335.359375 439.242188 335.40625 M 439.246094 335.257812 C 439.246094 335.210938 439.25 335.167969 439.25 335.121094 C 439.25 335.167969 439.246094 335.210938 439.246094 335.257812 M 439.25 335.113281 C 439.25 335.0625 439.257812 335.019531 439.257812 334.972656 C 439.257812 335.019531 439.25 335.0625 439.25 335.113281 M 439.257812 334.96875 C 439.257812 334.921875 439.261719 334.875 439.261719 334.832031 C 439.261719 334.875 439.257812 334.921875 439.257812 334.96875 M 439.261719 334.820312 C 439.269531 334.632812 439.277344 334.445312 439.285156 334.253906 C 439.277344 334.445312 439.269531 334.632812 439.261719 334.820312 M 439.285156 334.25 C 439.289062 334.203125 439.289062 334.152344 439.289062 334.105469 C 439.289062 334.152344 439.289062 334.203125 439.285156 334.25 M 439.289062 334.101562 C 439.292969 334.054688 439.292969 334.007812 439.296875 333.964844 C 439.292969 334.011719 439.292969 334.054688 439.289062 334.101562 M 439.296875 333.960938 C 439.308594 333.667969 439.324219 333.386719 439.34375 333.097656 C 439.324219 333.386719 439.308594 333.667969 439.296875 333.960938 M 439.34375 333.097656 C 441.90625 285.757812 478.25 247.410156 524.679688 241.773438 C 524.6875 241.773438 524.699219 241.773438 524.703125 241.777344 C 478.265625 247.40625 441.90625 285.75 439.34375 333.097656 " fill-opacity="1" fill-rule="nonzero"/><path fill="#ea5b34" d="M 536.53125 241.058594 C 531.5 241.058594 526.558594 241.441406 521.734375 242.179688 C 568.46875 249.308594 604.273438 289.703125 604.273438 338.457031 C 604.273438 379.007812 548.96875 465.515625 521.734375 505.65625 C 530.628906 518.769531 536.53125 526.9375 536.53125 526.9375 C 536.53125 526.9375 633.863281 392.25 633.863281 338.457031 C 633.863281 284.664062 590.285156 241.058594 536.53125 241.058594 " fill-opacity="1" fill-rule="nonzero"/><path fill="#000000" d="M 536.53125 243.6875 C 484.3125 243.6875 441.820312 286.199219 441.820312 338.457031 C 441.820312 386.402344 522.300781 502.285156 536.53125 522.402344 C 550.761719 502.285156 631.234375 386.402344 631.234375 338.457031 C 631.234375 286.199219 588.753906 243.6875 536.53125 243.6875 Z M 536.53125 529.566406 C 535.6875 529.566406 534.894531 529.160156 534.402344 528.476562 C 534.160156 528.132812 509.722656 494.25 485.613281 454.226562 C 453.070312 400.199219 436.566406 361.25 436.566406 338.457031 C 436.566406 283.300781 481.410156 238.425781 536.53125 238.425781 C 591.648438 238.425781 636.492188 283.300781 636.492188 338.457031 C 636.492188 361.25 619.992188 400.199219 587.449219 454.226562 C 563.339844 494.25 538.90625 528.132812 538.664062 528.476562 C 538.164062 529.160156 537.375 529.566406 536.53125 529.566406 " fill-opacity="1" fill-rule="nonzero"/><path fill="#ffffff" d="M 600.035156 338.457031 C 600.035156 373.558594 571.605469 402.007812 536.53125 402.007812 C 501.457031 402.007812 473.019531 373.558594 473.019531 338.457031 C 473.019531 303.359375 501.457031 274.910156 536.53125 274.910156 C 571.605469 274.910156 600.035156 303.359375 600.035156 338.457031 " fill-opacity="1" fill-rule="nonzero"/><path fill="#f2f0f0" d="M 536.53125 274.910156 C 532.402344 274.910156 528.371094 275.308594 524.464844 276.058594 C 553.769531 281.699219 575.914062 307.488281 575.914062 338.457031 C 575.914062 369.421875 553.769531 395.214844 524.464844 400.859375 C 528.371094 401.613281 532.402344 402.007812 536.53125 402.007812 C 571.605469 402.007812 600.035156 373.558594 600.035156 338.457031 C 600.035156 303.359375 571.605469 274.910156 536.53125 274.910156 " fill-opacity="1" fill-rule="nonzero"/><path fill="#000000" d="M 536.53125 277.539062 C 502.960938 277.539062 475.648438 304.863281 475.648438 338.457031 C 475.648438 372.046875 502.960938 399.375 536.53125 399.375 C 570.097656 399.375 597.410156 372.046875 597.410156 338.457031 C 597.410156 304.863281 570.097656 277.539062 536.53125 277.539062 Z M 536.53125 404.636719 C 500.0625 404.636719 470.394531 374.953125 470.394531 338.457031 C 470.394531 301.96875 500.0625 272.277344 536.53125 272.277344 C 573 272.277344 602.664062 301.96875 602.664062 338.457031 C 602.664062 374.953125 573 404.636719 536.53125 404.636719 " fill-opacity="1" fill-rule="nonzero"/><path fill="#92ce7b" d="M 134.089844 329.179688 C 131.546875 329.179688 129.007812 328.210938 127.066406 326.269531 C 123.1875 322.386719 123.1875 316.101562 127.066406 312.21875 L 145.4375 293.835938 L 127.066406 275.453125 C 123.1875 271.574219 123.1875 265.277344 127.066406 261.394531 C 129.007812 259.453125 131.546875 258.488281 134.089844 258.488281 C 136.632812 258.488281 139.171875 259.453125 141.109375 261.394531 L 159.480469 279.777344 L 177.851562 261.394531 C 179.792969 259.453125 182.332031 258.488281 184.875 258.488281 C 187.414062 258.488281 189.957031 259.460938 191.898438 261.394531 C 195.773438 265.277344 195.773438 271.574219 191.898438 275.453125 L 173.527344 293.835938 L 191.898438 312.21875 C 195.773438 316.101562 195.773438 322.386719 191.898438 326.269531 C 189.957031 328.210938 187.414062 329.179688 184.875 329.179688 C 182.332031 329.179688 179.792969 328.210938 177.851562 326.269531 L 159.480469 307.886719 L 141.109375 326.269531 C 139.171875 328.210938 136.632812 329.179688 134.089844 329.179688 " fill-opacity="1" fill-rule="nonzero"/><path fill="#fc7043" d="M 184.539062 306.957031 L 166.167969 288.578125 L 184.539062 270.195312 C 188.417969 266.316406 188.417969 260.019531 184.539062 256.144531 C 180.660156 252.261719 174.371094 252.261719 170.492188 256.144531 L 152.125 274.523438 L 133.753906 256.136719 C 129.875 252.261719 123.585938 252.261719 119.707031 256.136719 C 115.828125 260.019531 115.832031 266.316406 119.707031 270.195312 L 138.078125 288.578125 L 119.707031 306.957031 C 115.832031 310.839844 115.828125 317.128906 119.707031 321.011719 C 123.585938 324.894531 129.875 324.894531 133.753906 321.011719 L 152.125 302.628906 L 170.492188 321.011719 C 174.371094 324.894531 180.660156 324.894531 184.539062 321.011719 C 188.417969 317.128906 188.417969 310.839844 184.539062 306.957031 " fill-opacity="1" fill-rule="nonzero"/><path fill="#000000" d="M 152.125 300 C 152.796875 300 153.46875 300.257812 153.980469 300.765625 L 172.351562 319.148438 C 173.730469 320.535156 175.5625 321.289062 177.515625 321.289062 C 179.46875 321.289062 181.300781 320.535156 182.679688 319.148438 C 184.058594 317.773438 184.816406 315.933594 184.816406 313.984375 C 184.816406 312.035156 184.058594 310.199219 182.679688 308.816406 L 164.3125 290.433594 C 163.816406 289.945312 163.539062 289.269531 163.539062 288.578125 C 163.539062 287.878906 163.816406 287.207031 164.3125 286.714844 L 182.679688 268.335938 C 184.058594 266.957031 184.820312 265.117188 184.820312 263.167969 C 184.820312 261.210938 184.058594 259.378906 182.679688 258 C 181.300781 256.621094 179.46875 255.859375 177.515625 255.859375 C 175.5625 255.859375 173.730469 256.621094 172.351562 258 L 153.980469 276.378906 C 152.957031 277.40625 151.289062 277.40625 150.265625 276.378906 L 131.894531 258 C 130.515625 256.621094 128.679688 255.859375 126.730469 255.859375 C 124.78125 255.859375 122.945312 256.621094 121.566406 258 C 120.1875 259.375 119.429688 261.210938 119.429688 263.167969 C 119.429688 265.117188 120.1875 266.957031 121.566406 268.335938 L 139.9375 286.714844 C 140.964844 287.746094 140.964844 289.410156 139.9375 290.433594 L 121.566406 308.816406 C 118.71875 311.664062 118.71875 316.304688 121.566406 319.148438 C 124.414062 322 129.046875 322 131.898438 319.148438 L 150.265625 300.765625 C 150.777344 300.257812 151.449219 300 152.125 300 Z M 177.515625 326.546875 C 174.160156 326.546875 171.007812 325.242188 168.636719 322.875 L 152.125 306.347656 L 135.609375 322.875 C 130.714844 327.769531 122.746094 327.769531 117.847656 322.875 C 112.953125 317.972656 112.953125 310 117.847656 305.097656 L 134.359375 288.578125 L 117.847656 272.050781 C 115.476562 269.679688 114.171875 266.523438 114.171875 263.167969 C 114.171875 259.808594 115.476562 256.652344 117.847656 254.28125 C 120.222656 251.910156 123.375 250.597656 126.730469 250.597656 C 130.085938 250.597656 133.238281 251.910156 135.609375 254.28125 L 152.125 270.800781 L 168.636719 254.28125 C 171.007812 251.910156 174.160156 250.597656 177.515625 250.597656 C 180.871094 250.597656 184.023438 251.910156 186.398438 254.28125 C 188.769531 256.652344 190.074219 259.808594 190.074219 263.167969 C 190.074219 266.523438 188.769531 269.679688 186.398438 272.050781 L 169.886719 288.578125 L 186.398438 305.097656 C 188.769531 307.472656 190.074219 310.628906 190.074219 313.984375 C 190.074219 317.339844 188.769531 320.496094 186.398438 322.875 C 184.023438 325.242188 180.871094 326.546875 177.515625 326.546875 " fill-opacity="1" fill-rule="nonzero"/><path fill="#000000" d="M 151.25 329.816406 C 149.9375 329.816406 148.804688 328.835938 148.640625 327.5 L 148.011719 322.28125 C 147.839844 320.835938 148.867188 319.527344 150.308594 319.355469 C 151.753906 319.179688 153.058594 320.207031 153.234375 321.648438 L 153.859375 326.871094 C 154.035156 328.3125 153.007812 329.621094 151.566406 329.792969 C 151.460938 329.808594 151.355469 329.816406 151.25 329.816406 Z M 153.761719 350.699219 C 152.453125 350.699219 151.316406 349.722656 151.15625 348.386719 L 150.527344 343.164062 C 150.355469 341.722656 151.382812 340.410156 152.820312 340.238281 C 154.265625 340.066406 155.574219 341.09375 155.746094 342.539062 L 156.375 347.753906 C 156.546875 349.199219 155.523438 350.511719 154.082031 350.683594 C 153.972656 350.695312 153.867188 350.699219 153.761719 350.699219 Z M 156.277344 371.589844 C 154.96875 371.589844 153.832031 370.605469 153.671875 369.269531 L 153.042969 364.046875 C 152.871094 362.609375 153.898438 361.296875 155.339844 361.125 C 156.785156 360.949219 158.089844 361.980469 158.261719 363.421875 L 158.890625 368.644531 C 159.0625 370.085938 158.035156 371.394531 156.59375 371.570312 C 156.488281 371.578125 156.382812 371.589844 156.277344 371.589844 Z M 159.964844 392.269531 C 158.808594 392.269531 157.75 391.5 157.429688 390.335938 C 156.960938 388.617188 156.523438 386.859375 156.136719 385.105469 C 155.820312 383.691406 156.710938 382.289062 158.128906 381.972656 C 159.542969 381.65625 160.949219 382.546875 161.265625 383.964844 C 161.636719 385.632812 162.054688 387.304688 162.5 388.945312 C 162.882812 390.34375 162.0625 391.792969 160.660156 392.175781 C 160.425781 392.238281 160.195312 392.269531 159.964844 392.269531 Z M 167.445312 411.910156 C 166.476562 411.910156 165.546875 411.375 165.085938 410.453125 C 164.292969 408.855469 163.527344 407.207031 162.808594 405.558594 C 162.226562 404.230469 162.835938 402.679688 164.164062 402.101562 C 165.496094 401.515625 167.042969 402.125 167.625 403.457031 C 168.308594 405.019531 169.039062 406.585938 169.796875 408.113281 C 170.441406 409.410156 169.910156 410.988281 168.609375 411.636719 C 168.234375 411.824219 167.835938 411.910156 167.445312 411.910156 Z M 178.546875 429.742188 C 177.753906 429.742188 176.976562 429.390625 176.457031 428.710938 C 175.371094 427.285156 174.300781 425.824219 173.289062 424.359375 C 172.460938 423.164062 172.757812 421.523438 173.953125 420.699219 C 175.144531 419.871094 176.785156 420.171875 177.609375 421.363281 C 178.578125 422.765625 179.59375 424.15625 180.632812 425.515625 C 181.511719 426.664062 181.292969 428.316406 180.140625 429.199219 C 179.664062 429.5625 179.101562 429.742188 178.546875 429.742188 Z M 192.839844 445.121094 C 192.21875 445.121094 191.597656 444.902344 191.097656 444.460938 C 189.757812 443.269531 188.433594 442.035156 187.160156 440.789062 C 186.121094 439.773438 186.101562 438.109375 187.113281 437.070312 C 188.128906 436.035156 189.789062 436.011719 190.832031 437.027344 C 192.046875 438.214844 193.308594 439.390625 194.585938 440.523438 C 195.671875 441.488281 195.769531 443.148438 194.804688 444.234375 C 194.285156 444.824219 193.5625 445.121094 192.839844 445.121094 Z M 209.796875 457.480469 C 209.34375 457.480469 208.878906 457.363281 208.460938 457.117188 C 206.925781 456.207031 205.390625 455.25 203.898438 454.265625 C 202.6875 453.472656 202.347656 451.84375 203.148438 450.628906 C 203.945312 449.414062 205.574219 449.078125 206.785156 449.875 C 208.207031 450.8125 209.671875 451.722656 211.132812 452.589844 C 212.386719 453.324219 212.800781 454.941406 212.058594 456.191406 C 211.570312 457.023438 210.695312 457.480469 209.796875 457.480469 Z M 228.796875 466.371094 C 228.503906 466.371094 228.207031 466.324219 227.917969 466.21875 C 226.238281 465.621094 224.550781 464.976562 222.902344 464.296875 C 221.558594 463.75 220.914062 462.214844 221.464844 460.867188 C 222.015625 459.527344 223.550781 458.878906 224.890625 459.433594 C 226.46875 460.078125 228.074219 460.695312 229.675781 461.257812 C 231.042969 461.746094 231.757812 463.25 231.273438 464.617188 C 230.890625 465.695312 229.878906 466.371094 228.796875 466.371094 Z M 249.164062 471.445312 C 249.03125 471.445312 248.902344 471.433594 248.773438 471.414062 C 247.007812 471.152344 245.222656 470.84375 243.472656 470.492188 C 242.046875 470.214844 241.121094 468.832031 241.40625 467.40625 C 241.6875 465.980469 243.074219 465.054688 244.492188 465.339844 C 246.164062 465.667969 247.863281 465.964844 249.546875 466.210938 C 250.980469 466.425781 251.972656 467.761719 251.757812 469.199219 C 251.5625 470.507812 250.441406 471.445312 249.164062 471.445312 Z M 270.039062 473.828125 C 269.890625 473.828125 269.738281 473.816406 269.582031 473.789062 C 267.910156 473.496094 266.203125 473.238281 264.511719 473.023438 C 263.070312 472.84375 262.050781 471.523438 262.234375 470.089844 C 262.414062 468.644531 263.726562 467.628906 265.171875 467.804688 C 266.945312 468.03125 268.738281 468.300781 270.492188 468.609375 C 271.921875 468.863281 272.878906 470.222656 272.628906 471.65625 C 272.402344 472.925781 271.292969 473.828125 270.039062 473.828125 Z M 290.265625 479.429688 C 289.957031 479.429688 289.636719 479.375 289.328125 479.253906 C 287.734375 478.644531 286.109375 478.066406 284.496094 477.535156 C 283.117188 477.078125 282.367188 475.59375 282.820312 474.210938 C 283.273438 472.832031 284.757812 472.082031 286.140625 472.539062 C 287.835938 473.097656 289.539062 473.699219 291.210938 474.34375 C 292.566406 474.863281 293.242188 476.382812 292.722656 477.742188 C 292.324219 478.785156 291.324219 479.429688 290.265625 479.429688 Z M 309.054688 488.796875 C 308.578125 488.796875 308.09375 488.667969 307.660156 488.394531 C 306.21875 487.496094 304.734375 486.617188 303.25 485.78125 C 301.984375 485.070312 301.53125 483.472656 302.242188 482.207031 C 302.949219 480.9375 304.550781 480.484375 305.816406 481.195312 C 307.375 482.066406 308.933594 482.988281 310.449219 483.933594 C 311.679688 484.710938 312.054688 486.328125 311.28125 487.558594 C 310.785156 488.359375 309.929688 488.796875 309.054688 488.796875 Z M 325.703125 501.585938 C 325.058594 501.585938 324.414062 501.355469 323.90625 500.882812 C 322.667969 499.71875 321.378906 498.574219 320.078125 497.46875 C 318.96875 496.53125 318.832031 494.867188 319.769531 493.765625 C 320.707031 492.65625 322.367188 492.519531 323.472656 493.457031 C 324.839844 494.617188 326.191406 495.820312 327.496094 497.035156 C 328.554688 498.023438 328.613281 499.691406 327.625 500.753906 C 327.105469 501.308594 326.40625 501.585938 325.703125 501.585938 Z M 340.613281 516.417969 C 339.941406 516.417969 339.269531 516.160156 338.753906 515.644531 L 335.039062 511.925781 C 334.011719 510.898438 334.011719 509.238281 335.039062 508.207031 C 336.0625 507.179688 337.730469 507.179688 338.753906 508.207031 L 342.472656 511.925781 C 343.5 512.957031 343.5 514.617188 342.472656 515.644531 C 341.957031 516.160156 341.289062 516.417969 340.613281 516.417969 Z M 355.492188 531.285156 C 354.832031 531.285156 354.171875 531.039062 353.664062 530.542969 C 353.246094 530.140625 352.832031 529.734375 352.421875 529.324219 L 349.902344 526.804688 C 348.878906 525.78125 348.878906 524.113281 349.902344 523.085938 C 350.929688 522.054688 352.59375 522.054688 353.621094 523.085938 L 356.140625 525.605469 C 356.53125 525.996094 356.925781 526.382812 357.320312 526.769531 C 358.363281 527.777344 358.390625 529.445312 357.378906 530.488281 C 356.863281 531.015625 356.179688 531.285156 355.492188 531.285156 Z M 527.980469 537.660156 C 526.855469 537.660156 525.8125 536.929688 525.464844 535.792969 C 525.039062 534.40625 525.824219 532.9375 527.210938 532.511719 L 532.242188 530.980469 C 533.628906 530.554688 535.097656 531.339844 535.519531 532.726562 C 535.945312 534.121094 535.164062 535.589844 533.769531 536.011719 L 528.746094 537.542969 C 528.488281 537.625 528.230469 537.660156 527.980469 537.660156 Z M 507.867188 543.792969 C 506.738281 543.792969 505.699219 543.0625 505.355469 541.925781 C 504.929688 540.535156 505.710938 539.070312 507.101562 538.644531 L 512.128906 537.113281 C 513.519531 536.6875 514.984375 537.46875 515.410156 538.859375 C 515.832031 540.246094 515.046875 541.71875 513.660156 542.140625 L 508.636719 543.675781 C 508.378906 543.757812 508.121094 543.792969 507.867188 543.792969 Z M 371.894531 544.390625 C 371.402344 544.390625 370.902344 544.253906 370.460938 543.964844 C 368.960938 542.988281 367.46875 541.960938 366.023438 540.914062 C 364.847656 540.070312 364.582031 538.421875 365.433594 537.242188 C 366.285156 536.066406 367.925781 535.804688 369.101562 536.65625 C 370.476562 537.652344 371.902344 538.628906 373.332031 539.558594 C 374.546875 540.351562 374.890625 541.984375 374.097656 543.199219 C 373.59375 543.972656 372.753906 544.390625 371.894531 544.390625 Z M 487.753906 549.917969 C 486.628906 549.917969 485.589844 549.195312 485.242188 548.058594 C 484.820312 546.667969 485.605469 545.203125 486.992188 544.773438 L 492.015625 543.246094 C 493.40625 542.820312 494.875 543.601562 495.296875 544.992188 C 495.722656 546.378906 494.9375 547.851562 493.550781 548.273438 L 488.523438 549.808594 C 488.269531 549.882812 488.011719 549.917969 487.753906 549.917969 Z M 390.503906 554.109375 C 390.175781 554.109375 389.839844 554.050781 389.515625 553.917969 C 387.859375 553.246094 386.199219 552.527344 384.582031 551.777344 C 383.261719 551.167969 382.6875 549.601562 383.296875 548.289062 C 383.90625 546.96875 385.464844 546.394531 386.785156 547.007812 C 388.328125 547.714844 389.910156 548.40625 391.488281 549.039062 C 392.835938 549.589844 393.484375 551.125 392.941406 552.472656 C 392.527344 553.492188 391.542969 554.109375 390.503906 554.109375 Z M 467.644531 556.050781 C 466.519531 556.050781 465.472656 555.320312 465.132812 554.191406 C 464.707031 552.800781 465.492188 551.328125 466.878906 550.90625 L 471.90625 549.375 C 473.292969 548.953125 474.761719 549.734375 475.1875 551.125 C 475.613281 552.511719 474.828125 553.980469 473.4375 554.40625 L 468.410156 555.9375 C 468.15625 556.015625 467.898438 556.050781 467.644531 556.050781 Z M 410.628906 560.089844 C 410.457031 560.089844 410.292969 560.074219 410.125 560.042969 C 408.367188 559.695312 406.601562 559.308594 404.867188 558.886719 C 403.457031 558.539062 402.59375 557.113281 402.941406 555.703125 C 403.289062 554.296875 404.710938 553.433594 406.121094 553.773438 C 407.769531 554.179688 409.457031 554.550781 411.128906 554.878906 C 412.550781 555.160156 413.480469 556.542969 413.203125 557.96875 C 412.960938 559.21875 411.863281 560.089844 410.628906 560.089844 Z M 447.230469 560.976562 C 445.941406 560.976562 444.824219 560.035156 444.632812 558.722656 C 444.421875 557.289062 445.417969 555.953125 446.851562 555.742188 C 448.539062 555.5 450.242188 555.210938 451.910156 554.886719 C 453.332031 554.605469 454.714844 555.535156 454.992188 556.960938 C 455.273438 558.386719 454.34375 559.765625 452.917969 560.042969 C 451.160156 560.386719 449.378906 560.691406 447.609375 560.949219 C 447.480469 560.96875 447.355469 560.976562 447.230469 560.976562 Z M 431.519531 562.109375 C 429.734375 562.109375 427.925781 562.070312 426.136719 561.980469 C 424.6875 561.910156 423.574219 560.679688 423.640625 559.226562 C 423.710938 557.777344 424.9375 556.664062 426.390625 556.730469 C 428.09375 556.808594 429.816406 556.851562 431.519531 556.851562 C 432.972656 556.851562 434.148438 558.03125 434.148438 559.480469 C 434.148438 560.933594 432.972656 562.109375 431.519531 562.109375 " fill-opacity="1" fill-rule="nonzero"/></svg>