<svg xmlns="http://www.w3.org/2000/svg" xmlns:xlink="http://www.w3.org/1999/xlink" width="40" zoomAndPan="magnify" viewBox="0 0 30 30.000001" height="40" preserveAspectRatio="xMidYMid meet" version="1.0"><defs><clipPath id="92d66e49d5"><path d="M 0.484375 25 L 4 25 L 4 29 L 0.484375 29 Z M 0.484375 25 " clip-rule="nonzero"/></clipPath></defs><path fill="#000000" d="M 25.78125 3.0625 C 23.839844 1.105469 21.257812 0.03125 18.511719 0.03125 C 15.765625 0.03125 13.183594 1.105469 11.238281 3.0625 C 9.296875 5.015625 8.226562 7.617188 8.226562 10.382812 C 8.226562 12.785156 9.039062 15.0625 10.527344 16.902344 L 8.539062 18.902344 L 8.089844 18.445312 L 2.066406 24.507812 L 4.476562 26.933594 L 10.496094 20.875 L 10.046875 20.417969 L 12.03125 18.421875 C 13.859375 19.917969 16.121094 20.734375 18.507812 20.734375 C 21.253906 20.734375 23.835938 19.65625 25.78125 17.703125 C 29.789062 13.664062 29.789062 7.097656 25.78125 3.0625 Z M 24.671875 16.582031 C 23.023438 18.238281 20.835938 19.152344 18.507812 19.152344 C 16.179688 19.152344 13.996094 18.238281 12.347656 16.582031 C 10.703125 14.925781 9.796875 12.726562 9.796875 10.382812 C 9.796875 8.039062 10.703125 5.835938 12.347656 4.179688 C 13.992188 2.523438 16.179688 1.609375 18.507812 1.609375 C 20.835938 1.609375 23.023438 2.523438 24.667969 4.179688 C 28.066406 7.601562 28.066406 13.164062 24.671875 16.582031 Z M 24.671875 16.582031 " fill-opacity="1" fill-rule="nonzero"/><path fill="#000000" d="M 18.507812 2.789062 C 16.496094 2.789062 14.601562 3.582031 13.179688 5.015625 C 12.964844 5.230469 12.964844 5.582031 13.179688 5.796875 C 13.394531 6.011719 13.742188 6.011719 13.957031 5.796875 C 15.171875 4.574219 16.789062 3.898438 18.507812 3.898438 C 20.230469 3.898438 21.847656 4.574219 23.0625 5.796875 C 23.167969 5.90625 23.3125 5.960938 23.453125 5.960938 C 23.59375 5.960938 23.734375 5.90625 23.84375 5.796875 C 24.058594 5.582031 24.058594 5.230469 23.84375 5.015625 C 22.417969 3.582031 20.523438 2.789062 18.507812 2.789062 Z M 18.507812 2.789062 " fill-opacity="1" fill-rule="nonzero"/><g clip-path="url(#92d66e49d5)"><path fill="#000000" d="M 0.65625 25.929688 C 0.0390625 26.546875 0.0390625 27.550781 0.65625 28.167969 L 0.84375 28.359375 C 1.457031 28.976562 2.453125 28.976562 3.066406 28.359375 L 3.894531 27.523438 L 1.484375 25.097656 Z M 0.65625 25.929688 " fill-opacity="1" fill-rule="nonzero"/></g></svg>