<svg xmlns="http://www.w3.org/2000/svg" xmlns:xlink="http://www.w3.org/1999/xlink" width="1080" zoomAndPan="magnify" viewBox="0 0 810 809.999993" height="1080" preserveAspectRatio="xMidYMid meet" version="1.0"><path fill="#e42a01" d="M 415.578125 413.453125 C 331.289062 413.453125 262.96875 345.09375 262.96875 260.78125 C 262.96875 176.457031 331.289062 108.101562 415.578125 108.101562 C 499.863281 108.101562 568.191406 176.457031 568.191406 260.78125 C 568.191406 345.09375 499.863281 413.453125 415.578125 413.453125 Z M 621.917969 152.917969 C 555.277344 38.945312 408.902344 0.589844 294.96875 67.253906 C 181.042969 133.921875 142.707031 280.359375 209.34375 394.332031 L 415.632812 747.164062 L 621.917969 394.332031 C 663.8125 322.265625 666.996094 230.019531 621.917969 152.917969 " fill-opacity="1" fill-rule="nonzero"/><path fill="#e42a01" d="M 415.578125 153.90625 C 356.671875 153.90625 308.75 201.847656 308.75 260.78125 C 308.75 319.710938 356.671875 367.648438 415.578125 367.648438 C 474.484375 367.648438 522.40625 319.710938 522.40625 260.78125 C 522.40625 201.847656 474.484375 153.90625 415.578125 153.90625 Z M 415.578125 392.480469 C 342.988281 392.480469 283.929688 333.398438 283.929688 260.78125 C 283.929688 188.152344 342.988281 129.078125 415.578125 129.078125 C 488.164062 129.078125 547.222656 188.152344 547.222656 260.78125 C 547.222656 333.398438 488.164062 392.480469 415.578125 392.480469 " fill-opacity="1" fill-rule="nonzero"/><path fill="#e42a01" d="M 415.578125 809.4375 C 368.796875 809.4375 324.640625 802.152344 291.222656 788.925781 C 254.167969 774.261719 233.761719 753.324219 233.761719 729.976562 C 233.761719 696.585938 274.453125 669.238281 342.613281 656.828125 L 347.0625 681.25 C 288.972656 691.835938 258.582031 713.773438 258.582031 729.976562 C 258.582031 742.078125 274.195312 755.488281 300.355469 765.839844 C 330.933594 777.941406 371.855469 784.609375 415.578125 784.609375 C 459.300781 784.609375 500.21875 777.941406 530.800781 765.839844 C 556.960938 755.488281 572.574219 742.078125 572.574219 729.976562 C 572.574219 713.773438 542.183594 691.835938 484.09375 681.25 L 488.539062 656.828125 C 556.699219 669.238281 597.390625 696.585938 597.390625 729.976562 C 597.390625 753.324219 576.984375 774.261719 539.929688 788.925781 C 506.515625 802.152344 462.347656 809.4375 415.578125 809.4375 " fill-opacity="1" fill-rule="nonzero"/></svg>