<svg xmlns="http://www.w3.org/2000/svg" xmlns:xlink="http://www.w3.org/1999/xlink" width="1080" zoomAndPan="magnify" viewBox="0 0 810 809.999993" height="1080" preserveAspectRatio="xMidYMid meet" version="1.0"><defs><clipPath id="f6c6f4306e"><path d="M 22.128906 18 L 787 18 L 787 791 L 22.128906 791 Z M 22.128906 18 " clip-rule="nonzero"/></clipPath><clipPath id="0d4abced45"><path d="M 715 286 L 787.878906 286 L 787.878906 380 L 715 380 Z M 715 286 " clip-rule="nonzero"/></clipPath></defs><g clip-path="url(#f6c6f4306e)"><path fill="#edcc9a" d="M 786.65625 186.683594 C 786.113281 191.855469 785.324219 196.671875 782.503906 201.136719 C 780.734375 203.941406 779.921875 207.332031 778.335938 210.273438 C 776.652344 213.394531 774.351562 216.183594 772.699219 219.320312 C 770.273438 223.925781 767.660156 228.539062 766.054688 233.453125 C 763.105469 242.472656 758.144531 249.375 749.433594 253.65625 C 742.214844 257.203125 734.507812 259.382812 726.878906 261.332031 C 711.558594 265.242188 700.261719 274.140625 691.269531 286.628906 C 689.476562 289.121094 689.707031 291.875 690.339844 294.503906 C 691.605469 299.769531 693.511719 304.890625 694.566406 310.191406 C 695.574219 315.347656 695.625 320.644531 694.714844 325.820312 C 693.738281 331.523438 691.183594 336.613281 687.984375 341.253906 C 684.554688 346.230469 682.792969 351.710938 681.515625 357.453125 C 681.296875 358.484375 681.246094 359.542969 681.371094 360.585938 C 682.539062 370.542969 683.769531 380.492188 684.957031 390.445312 C 685.402344 394.1875 685.984375 397.929688 686.136719 401.6875 C 686.378906 407.59375 688.742188 412.773438 691.703125 417.585938 C 695.351562 423.515625 697.683594 429.945312 700.058594 436.386719 C 702.308594 442.496094 701.894531 448.925781 701.023438 455.0625 C 700.039062 462.007812 700.214844 468.875 700.546875 475.753906 C 700.804688 481.144531 701.949219 486.496094 702.660156 491.867188 C 704.175781 503.308594 707.953125 513.898438 715.367188 522.824219 C 718.550781 526.652344 722.617188 529.753906 726.347656 533.117188 C 731.792969 538.027344 737.519531 542.652344 742.722656 547.804688 C 749.128906 554.152344 755.289062 560.773438 761.246094 567.550781 C 765.703125 572.621094 769.34375 578.277344 769.6875 585.386719 C 769.671875 585.59375 769.695312 585.808594 769.765625 586.007812 C 773.121094 592.074219 771.355469 598.78125 772.238281 605.148438 C 773.183594 611.972656 773.578125 618.855469 774.242188 625.683594 C 775.304688 636.578125 778.5 646.957031 780.371094 657.625 C 781.558594 663.835938 781.179688 670.242188 779.261719 676.261719 C 778.582031 678.730469 776.902344 680.804688 774.628906 681.976562 C 769.925781 684.308594 765.339844 686.691406 759.90625 687.199219 C 757.324219 687.441406 754.742188 688.839844 752.40625 690.152344 C 750.230469 691.421875 748.222656 692.957031 746.429688 694.730469 C 737.8125 703.007812 727.382812 708.46875 716.726562 713.398438 C 711.980469 715.648438 706.664062 716.40625 701.476562 715.574219 C 695.050781 714.554688 688.832031 712.921875 682.527344 711.480469 C 672.964844 709.300781 663.289062 707.671875 653.742188 705.324219 C 648.488281 704.03125 643.175781 702.851562 637.882812 701.675781 C 626.898438 699.238281 619.1875 692.707031 613.265625 683.597656 C 611.78125 681.316406 610.359375 678.980469 609.09375 676.570312 C 605.535156 669.796875 599.480469 667.054688 592.367188 665.699219 C 586.832031 664.644531 581.328125 663.371094 575.882812 661.925781 C 571.492188 660.761719 568.167969 657.632812 565.03125 654.609375 C 559.910156 649.652344 553.976562 645.609375 547.484375 642.664062 C 544.296875 641.214844 540.6875 640.722656 537.304688 639.679688 C 527.730469 636.730469 518.199219 637.625 508.796875 640.242188 C 500.734375 642.484375 492.785156 645.070312 485.234375 648.875 C 477.851562 652.589844 470.996094 656.902344 465.160156 662.773438 C 462.636719 665.308594 459.953125 667.699219 457.597656 670.382812 C 454.113281 674.347656 449.636719 676.515625 444.730469 677.90625 C 436.480469 680.242188 428.210938 682.488281 419.910156 684.644531 C 413.515625 686.316406 409.199219 690.101562 407.25 696.464844 C 406.273438 699.652344 405.445312 702.890625 404.402344 706.058594 C 400.550781 717.765625 394.8125 728.308594 385.742188 736.910156 C 382.722656 739.777344 380.160156 743.128906 377.457031 746.320312 C 372.964844 751.617188 368.195312 756.613281 362.125 760.121094 C 358.824219 762.027344 356.820312 764.53125 356.160156 768.4375 C 355.574219 771.902344 353.984375 775.1875 353.242188 778.640625 C 352.515625 781.761719 350.492188 784.429688 347.675781 785.964844 C 340.847656 790.074219 333.457031 791.886719 325.410156 790.128906 C 315.394531 787.941406 306.75 783.289062 298.992188 776.609375 C 293.097656 771.546875 286.503906 767.359375 279.414062 764.171875 C 276.347656 762.835938 273.089844 762.007812 269.757812 761.722656 C 262.050781 760.996094 254.308594 760.511719 246.570312 760.308594 C 236.871094 760.050781 228.652344 756.847656 221.820312 749.8125 C 214.785156 742.574219 208.765625 734.554688 202.785156 726.476562 C 196.574219 718.082031 188.847656 711.191406 179.488281 706.742188 C 173.601562 703.914062 167.15625 702.4375 160.628906 702.425781 C 154.753906 702.464844 148.910156 701.554688 143.328125 699.722656 C 139.96875 698.570312 136.835938 696.839844 134.066406 694.613281 C 129.28125 690.828125 124.859375 686.429688 122.136719 680.941406 C 119.988281 676.621094 116.730469 674.160156 112.59375 672.347656 C 105.613281 669.371094 99.414062 664.820312 94.488281 659.050781 C 92.867188 657.140625 91.472656 655.054688 90.328125 652.832031 C 87.488281 647.199219 85.988281 640.992188 85.9375 634.6875 C 85.882812 631.179688 86.617188 627.65625 85.4375 624.214844 C 85.042969 623.070312 84.570312 621.710938 83.683594 621.03125 C 80.207031 618.355469 76.765625 615.511719 72.917969 613.46875 C 63.488281 608.460938 53.90625 603.714844 44.257812 599.144531 C 37.226562 595.816406 31.582031 590.84375 26.769531 584.976562 C 24.035156 581.644531 22.144531 577.777344 23.207031 572.910156 C 23.867188 569.898438 23.253906 566.625 23.355469 563.472656 C 23.679688 553.007812 26.128906 543.074219 32.386719 534.574219 C 36.835938 528.53125 41.707031 522.742188 49.363281 520.195312 C 53.691406 518.753906 57.722656 516.441406 62.003906 514.839844 C 63.917969 514.128906 66.1875 514.433594 68.1875 513.882812 C 72.824219 512.679688 77.394531 511.238281 81.886719 509.566406 C 84.382812 508.507812 86.683594 507.03125 88.6875 505.207031 C 91.847656 502.445312 94.648438 499.285156 97.679688 496.371094 C 102.722656 491.519531 108.703125 488.90625 115.789062 489 C 124.414062 489.109375 132.898438 487.703125 141.359375 486.347656 C 147.898438 485.296875 152.667969 481.425781 156.351562 475.902344 C 160.824219 469.195312 160.230469 463.175781 155.367188 456.910156 C 152.070312 452.664062 147.558594 449.945312 143.773438 446.34375 C 136.304688 439.242188 127.355469 434.046875 119.355469 427.621094 C 118.703125 427.097656 118.128906 426.472656 117.527344 425.882812 C 111.140625 419.625 110.449219 417.296875 114.003906 409.207031 C 116.730469 403 118.191406 396.515625 119.277344 389.925781 C 119.964844 385.753906 118.109375 381.980469 115.65625 378.851562 C 112.554688 374.898438 108.925781 371.445312 104.027344 369.464844 C 98.527344 367.242188 93.410156 366.867188 88.785156 371.125 C 86.035156 373.652344 82.847656 373.074219 79.847656 372.433594 C 73.105469 370.984375 66.300781 369.601562 59.796875 367.382812 C 52.820312 365.058594 46.230469 361.703125 40.253906 357.429688 C 39.402344 356.8125 38.660156 356.035156 37.769531 355.488281 C 29.070312 350.105469 25.546875 342.066406 27.566406 332.371094 C 28.929688 325.839844 28.0625 319.875 26.15625 313.90625 C 23.964844 307.054688 25.09375 300.671875 28.046875 294.476562 C 29.9375 290.507812 32.332031 286.785156 34.339844 282.867188 C 37.089844 277.503906 39.988281 272.1875 42.28125 266.625 C 45.765625 258.164062 51.128906 251.027344 57.285156 244.484375 C 61.820312 239.796875 67.375 236.214844 73.515625 234.015625 C 84.59375 229.839844 95.941406 227.144531 107.871094 227.808594 C 115.425781 228.234375 121.945312 225.523438 127.632812 220.996094 C 130.527344 218.691406 132.894531 215.578125 135.035156 212.503906 C 139.855469 205.570312 146.75 202 154.597656 200.066406 C 159.449219 198.871094 164.476562 198.394531 169.398438 197.449219 C 173.714844 196.644531 177.871094 195.132812 181.695312 192.980469 C 185.367188 190.867188 188.234375 187.597656 189.847656 183.683594 C 193.058594 176.390625 194.953125 168.589844 195.441406 160.640625 C 196.089844 150.855469 197.496094 141.136719 199.652344 131.570312 C 201.230469 124.230469 202.785156 116.882812 202.902344 109.265625 C 203.011719 101.929688 206.15625 96.183594 212.957031 92.453125 C 217.742188 89.828125 222.257812 86.859375 227.757812 85.78125 C 231.871094 84.9375 236.105469 84.886719 240.238281 85.628906 C 247.636719 86.996094 254.90625 89.066406 262.546875 89.023438 C 264.765625 89.011719 267.035156 89.949219 269.207031 90.667969 C 277.546875 93.421875 285.886719 96.179688 294.167969 99.097656 C 307.21875 103.691406 320.890625 105.882812 334.144531 109.707031 C 344.792969 112.777344 355.503906 115.628906 366.273438 118.257812 C 372.351562 119.75 378.660156 120.292969 384.714844 121.847656 C 392.839844 123.941406 400.039062 121.617188 407.066406 118.09375 C 413.496094 114.871094 417.605469 109.234375 421.109375 103.269531 C 426.652344 93.925781 431.570312 84.230469 435.832031 74.242188 C 437.75 69.585938 440.300781 65.21875 443.417969 61.261719 C 448.851562 54.464844 456.292969 51.546875 464.414062 49.710938 C 470.550781 48.449219 476.042969 45.058594 479.917969 40.136719 C 483.429688 35.703125 487.25 31.492188 491.125 27.367188 C 496.703125 21.425781 503.855469 18.558594 511.84375 18.210938 C 518.953125 17.898438 526.054688 17.878906 533.1875 19.183594 C 538.085938 20.078125 543.253906 19.554688 548.304688 19.542969 C 562.773438 19.511719 576.007812 24.089844 588.25 31.226562 C 594.992188 35.160156 600.683594 40.660156 604.84375 47.265625 C 607.539062 51.535156 609.003906 56.035156 607.375 61.007812 C 606.617188 63.222656 606.921875 65.667969 608.207031 67.628906 C 609.863281 70.523438 611.699219 73.3125 613.699219 75.984375 C 619.378906 83.226562 625.601562 90.074219 630.902344 97.578125 C 635.667969 104.519531 639.078125 112.296875 640.953125 120.503906 C 641.648438 123.34375 642.273438 126.207031 643.132812 128.996094 C 645.707031 137.347656 651.878906 141.773438 660.109375 142.773438 C 664.117188 143.257812 668.347656 141.679688 672.5 141.265625 C 681.863281 140.332031 691.003906 137.375 700.542969 138.15625 C 704.933594 138.382812 709.308594 138.871094 713.640625 139.621094 C 719.984375 140.992188 726.441406 141.796875 732.925781 142.015625 C 735.621094 142.078125 738.300781 142.757812 740.984375 143.175781 C 746.148438 143.972656 751.304688 144.804688 756.46875 145.574219 C 762.15625 146.386719 767.304688 149.363281 770.851562 153.875 C 776.796875 161.199219 782.136719 168.945312 784.789062 178.167969 C 785.589844 180.953125 786.042969 183.84375 786.65625 186.683594 Z M 786.65625 186.683594 " fill-opacity="1" fill-rule="nonzero"/></g><path fill="#edcc9a" d="M 115.773438 119.121094 C 110.566406 119.820312 105.339844 120.417969 100.152344 121.25 C 94.453125 122.164062 88.824219 123.75 83.097656 124.179688 C 78.984375 124.488281 74.683594 123.746094 70.605469 122.839844 C 61.25 120.761719 52.730469 117.273438 45.582031 110.226562 C 40.105469 104.832031 38.128906 98.175781 36.085938 91.449219 C 35.128906 88.296875 34.171875 85.582031 31.734375 83.3125 C 30.609375 82.210938 29.8125 80.824219 29.429688 79.296875 C 26.722656 68.226562 25.367188 56.960938 26.3125 45.59375 C 27.035156 36.929688 30.101562 34.316406 37.480469 32.453125 C 45.679688 30.382812 53.558594 29.769531 61.019531 34.792969 C 62.1875 35.402344 63.484375 35.734375 64.800781 35.757812 C 74.109375 36.695312 82.625 40.246094 91.042969 43.9375 C 94.144531 45.390625 96.992188 47.339844 99.46875 49.710938 C 106.355469 56.269531 114.457031 61.414062 123.320312 64.855469 C 130.160156 67.589844 136.691406 71.035156 142.8125 75.136719 C 151.894531 80.820312 158.175781 90.054688 160.125 100.589844 C 161.324219 106.621094 158.636719 110.691406 153.515625 111.871094 C 144.8125 113.871094 136.292969 116.667969 127.605469 118.742188 C 123.8125 119.644531 119.789062 119.589844 115.875 119.96875 C 115.839844 119.6875 115.808594 119.402344 115.773438 119.121094 Z M 115.773438 119.121094 " fill-opacity="1" fill-rule="nonzero"/><g clip-path="url(#0d4abced45)"><path fill="#edcc9a" d="M 737.902344 379.136719 C 731.277344 380.425781 725.507812 376.652344 720.535156 372.15625 C 715.515625 367.617188 714.707031 361.175781 716.019531 354.710938 C 716.917969 350.636719 718.070312 346.625 719.464844 342.691406 C 720.820312 338.5 721.019531 334.023438 720.046875 329.726562 C 719.398438 326.480469 719.445312 323.078125 719.378906 319.742188 C 719.476562 318.722656 719.832031 317.746094 720.410156 316.902344 C 723.4375 311.558594 728.242188 307.441406 733.984375 305.261719 C 737.519531 303.964844 740.707031 301.867188 743.292969 299.128906 C 747.046875 295.101562 751.863281 292.476562 756.359375 289.488281 C 762.78125 285.21875 769.636719 284.808594 776.53125 288.675781 C 777.617188 289.316406 778.738281 289.890625 779.890625 290.398438 C 782.824219 291.601562 784.800781 293.398438 785.03125 296.847656 C 785.140625 298.476562 785.902344 300.0625 786.382812 301.664062 C 786.617188 302.460938 787.230469 303.332031 787.074219 304.039062 C 785.796875 309.777344 787.882812 315.597656 786.566406 321.328125 C 786.246094 322.539062 786.113281 323.796875 786.171875 325.046875 C 786.570312 329.632812 784.492188 333.1875 781.492188 336.257812 C 779.160156 338.644531 776.546875 340.757812 774.015625 342.9375 C 772.109375 344.578125 770.007812 346.011719 768.222656 347.769531 C 766.332031 349.4375 765.011719 351.65625 764.453125 354.113281 C 763.777344 357.589844 762.71875 360.992188 761.761719 364.40625 C 758.769531 375.09375 752.757812 378.078125 743.125 379.113281 C 741.671875 379.269531 740.1875 379.136719 737.902344 379.136719 Z M 737.902344 379.136719 " fill-opacity="1" fill-rule="nonzero"/></g><path fill="#edcc9a" d="M 75 453.832031 C 71.097656 455.59375 67.5 457.289062 63.84375 458.84375 C 60.753906 460.3125 57.164062 460.292969 54.09375 458.789062 C 51.328125 457.429688 48.460938 456.605469 46.503906 453.648438 C 44.195312 450.167969 41.617188 447.082031 40.621094 442.777344 C 39.933594 439.816406 37.730469 437.226562 36.363281 434.398438 C 34.921875 431.632812 33.6875 428.761719 32.675781 425.8125 C 31.777344 423.160156 32.207031 420.234375 33.832031 417.953125 C 36.785156 413.898438 39.648438 409.722656 43.058594 406.070312 C 45.359375 403.632812 48.117188 401.667969 51.175781 400.285156 C 57.714844 397.367188 64.09375 398.914062 69.238281 403.386719 C 73.152344 406.84375 77.414062 409.886719 81.953125 412.464844 C 86.921875 415.257812 90.25 419.734375 90.050781 425.765625 C 89.882812 430.894531 92.804688 433.890625 96.4375 436.519531 C 99.320312 438.605469 102.320312 440.546875 105.386719 442.351562 C 108.300781 444.082031 110.5 446.796875 111.59375 450.003906 C 112.328125 451.960938 113.269531 453.847656 113.917969 455.828125 C 115.3125 460.101562 114.332031 462.578125 110.183594 464.46875 C 108.0625 465.308594 105.851562 465.910156 103.59375 466.261719 C 102.378906 466.507812 101.070312 466.261719 99.820312 466.398438 C 92.191406 467.238281 86.261719 464.207031 81.863281 458.203125 C 80.265625 455.875 77.789062 454.296875 75 453.832031 Z M 75 453.832031 " fill-opacity="1" fill-rule="nonzero"/><path fill="#658245" d="M 317.667969 741.355469 C 315.210938 741.355469 313.382812 738.867188 311.328125 738.082031 C 309.21875 737.273438 306.355469 738.050781 304.316406 736.925781 C 301.988281 735.640625 298.828125 734.851562 294.769531 733.019531 C 292.328125 731.90625 289.824219 730.9375 287.273438 730.109375 C 284.492188 729.210938 282.695312 725.332031 280.15625 724.816406 C 277.261719 724.226562 274.269531 725.058594 271.722656 724.796875 C 268.71875 724.484375 265.941406 724.734375 263.46875 724.601562 C 260.828125 724.460938 258.507812 722.269531 256.03125 721.917969 C 253.402344 721.546875 249.804688 724.476562 247.515625 723.367188 C 245.3125 722.300781 245.710938 717.804688 243.96875 715.582031 C 242.277344 713.410156 238.40625 713.042969 236.730469 711.015625 C 234.976562 708.894531 235.433594 704.929688 233.683594 702.964844 C 231.855469 700.90625 228.558594 700.234375 226.730469 698.347656 C 224.816406 696.367188 222.519531 694.875 220.601562 693.078125 C 218.59375 691.199219 216.816406 689.171875 214.796875 687.488281 C 212.691406 685.726562 209.539062 685.492188 207.410156 683.9375 C 205.199219 682.320312 204.074219 679.304688 201.835938 677.90625 C 199.519531 676.460938 196.464844 676.515625 194.109375 675.289062 C 191.699219 674.039062 189.542969 672.574219 187.078125 671.550781 C 184.585938 670.515625 182.203125 669.472656 179.644531 668.65625 C 177.089844 667.84375 174.414062 667.871094 171.78125 667.269531 C 168.832031 666.601562 166.484375 664.238281 164.027344 663.300781 C 161.214844 662.226562 157.816406 662.417969 155.546875 661.046875 C 153.011719 659.515625 151.746094 656.25 149.761719 654.425781 C 147.632812 652.464844 144.933594 651.007812 143.269531 648.808594 C 141.554688 646.539062 142.136719 642.808594 140.734375 640.394531 C 139.3125 637.949219 135.253906 637.703125 133.957031 635.226562 C 132.125 634.660156 131.238281 632.589844 129.234375 631.117188 C 127.605469 629.921875 125.601562 628.433594 124.332031 626.316406 C 122.949219 624.015625 124.066406 621.164062 123.808594 619.015625 C 123.429688 616.707031 123.367188 614.363281 123.625 612.039062 C 123.5 611.863281 123.957031 610.808594 123.832031 610.632812 C 121.9375 607.941406 119.546875 606.648438 118.234375 605.191406 C 116.316406 603.066406 114.304688 602.589844 111.546875 601.832031 C 109.625 601.304688 107.542969 601.621094 105.1875 601.390625 C 103.230469 601.199219 101.203125 599.660156 98.824219 599.660156 C 95.421875 599.660156 91.933594 600.339844 88.226562 600.527344 C 84.335938 600.726562 80.304688 601.773438 76.1875 601.773438 C 74.984375 601.773438 73.71875 602.53125 72.519531 602.488281 C 70.710938 602.429688 67.164062 601.449219 63.121094 600.640625 C 60.355469 600.085938 58.007812 597.152344 54.972656 595.738281 C 52.296875 594.492188 49.664062 593.359375 47.242188 591.140625 C 45.4375 589.484375 41.960938 588.976562 40.699219 586.871094 C 39.4375 584.769531 38.699219 581.980469 38.050781 579.613281 C 37.40625 577.246094 37.570312 574.472656 37.613281 572.015625 C 37.671875 568.730469 39.238281 565.734375 40.503906 562.933594 C 41.804688 560.054688 43.386719 557.285156 45.828125 555.195312 C 48.492188 552.921875 50.875 549.863281 53.625 549 C 57.082031 547.914062 60.933594 549.339844 63.503906 549.132812 C 64.414062 549.054688 64.382812 547.546875 65.191406 547.417969 C 65.753906 546.355469 67.855469 545.78125 68.371094 544.316406 C 69.527344 541.019531 69.183594 536.25 71.515625 532.554688 C 72.929688 530.3125 75.242188 528.417969 77.015625 526.699219 C 78.886719 524.882812 82.410156 525.195312 84.535156 523.875 C 86.742188 522.5 88.375 520.214844 90.691406 519.273438 C 93.128906 518.285156 95.144531 515.734375 97.523438 515.105469 C 100.152344 514.410156 102.859375 513.875 105.171875 513.46875 C 107.652344 513.035156 110.503906 513.570312 113.230469 513.367188 C 115.71875 513.179688 118.414062 515.355469 121.171875 515.355469 C 124.042969 515.355469 126.894531 513.816406 129.675781 513.960938 C 132.542969 514.113281 135.382812 514.128906 138.15625 514.328125 C 140.480469 514.492188 142.617188 516.632812 144.800781 516.753906 C 147.15625 516.886719 149.492188 516.046875 151.644531 516.046875 C 154.976562 516.046875 157.84375 516.179688 160.121094 515.730469 C 163.367188 515.089844 165.234375 512.988281 166.984375 511.027344 C 168.574219 509.246094 168.328125 506.601562 169.285156 503.355469 C 170.054688 500.742188 172.757812 498.824219 173.917969 496.550781 C 175.136719 494.15625 177.597656 492.699219 179.105469 490.609375 C 180.675781 488.558594 182.351562 486.59375 184.125 484.71875 C 185.917969 482.699219 185.585938 478.8125 187.347656 476.972656 C 189.738281 474.476562 193.308594 473.335938 195.207031 470.992188 C 199.015625 466.289062 199.144531 462.445312 198.789062 459.871094 C 198.46875 457.558594 198.230469 454.546875 196.792969 451.929688 C 195.632812 449.8125 192.648438 448.554688 190.828125 446.324219 C 189.171875 444.285156 187.394531 442.347656 185.511719 440.515625 C 183.699219 438.757812 181.964844 436.765625 179.824219 435.015625 C 177.84375 433.398438 174.949219 432.921875 172.714844 431.339844 C 170.488281 429.769531 169.695312 425.125 166.808594 423.496094 C 164.726562 422.320312 161.277344 423.132812 158.992188 421.703125 C 156.886719 420.382812 154.347656 419.375 152.308594 417.730469 C 150.347656 416.148438 150.164062 412.714844 148.464844 410.742188 C 146.832031 408.84375 145.957031 406.828125 144.75 404.484375 C 143.625 402.304688 140.769531 400.855469 140.164062 398.226562 C 139.507812 395.371094 138.601562 392.445312 138.679688 389.636719 C 138.761719 386.769531 138.480469 383.605469 139.09375 380.820312 C 139.710938 378.019531 141.851562 375.523438 142.769531 372.839844 C 143.710938 370.085938 143.957031 367.085938 144.960938 364.492188 C 145.726562 362.511719 147.105469 359.714844 148.039062 356.878906 C 149.1875 353.382812 149.800781 350.796875 149.265625 349.601562 C 149.253906 349.582031 148.753906 346.507812 139.960938 344.683594 C 139.097656 344.503906 138.054688 343.917969 136.902344 343.917969 C 133.757812 343.917969 130.335938 347.105469 126.386719 347.800781 C 123.96875 348.226562 121.117188 346.265625 118.597656 346.589844 C 116.167969 346.902344 113.769531 347.550781 111.222656 347.550781 C 108.726562 347.550781 106.117188 348.925781 103.875 348.515625 C 101.46875 348.074219 99.855469 345.09375 97.710938 344.171875 C 95.535156 343.234375 93.308594 342.691406 91.371094 341.25 C 89.179688 339.617188 87.96875 337.40625 86.414062 335.453125 C 84.738281 333.351562 81.550781 332.257812 80.480469 329.972656 C 79.335938 327.527344 80.070312 324.425781 79.460938 322.011719 C 78.777344 319.527344 78.273438 316.996094 77.957031 314.4375 C 77.625 311.148438 77.328125 308.4375 77.324219 306.699219 C 77.320312 303.921875 76.054688 300.859375 76.476562 297.914062 C 76.980469 294.984375 77.84375 292.128906 79.042969 289.40625 C 80.15625 286.734375 83.273438 285.382812 84.898438 283.300781 C 86.640625 281.074219 87.167969 277.6875 89.300781 276.042969 C 91.523438 274.335938 94.648438 273.960938 97.078125 272.78125 C 99.628906 271.542969 101.933594 269.695312 104.46875 268.925781 C 107.292969 268.066406 110.425781 269.1875 112.894531 268.746094 C 116.261719 268.140625 118.804688 265.40625 120.734375 265.210938 C 122.554688 265.027344 125.40625 266.527344 128.210938 266.0625 C 130.617188 265.664062 132.832031 264.039062 135.035156 263.285156 C 137.792969 262.335938 140.488281 261.847656 141.433594 260.097656 C 141.835938 259.351562 143.132812 258.300781 143.597656 256.917969 C 144.273438 254.933594 143.671875 251.90625 144.96875 249.375 C 146.289062 246.800781 147.121094 243.757812 148.863281 241.757812 C 150.71875 239.628906 154.660156 239.835938 156.875 238.257812 C 159.136719 236.648438 161.566406 235.914062 164.0625 234.765625 C 166.582031 233.605469 168.308594 230.628906 170.925781 229.828125 C 173.613281 229.003906 176.722656 230.085938 179.351562 229.519531 C 182.167969 228.910156 184.804688 228.097656 187.371094 227.628906 C 188.847656 227.363281 188.34375 224.578125 189.824219 224.3125 C 192.996094 223.738281 196.464844 226.164062 199.105469 225.605469 C 202.324219 224.921875 204.238281 221.007812 206.746094 220.152344 C 209.847656 219.09375 211.886719 218.203125 214.046875 216.515625 C 216.304688 214.753906 218.085938 213.496094 219.5 210.597656 C 220.550781 208.429688 224.1875 207.023438 224.765625 204.484375 C 225.300781 202.140625 222.863281 199.148438 223.167969 196.578125 C 223.453125 194.160156 225.515625 191.859375 225.742188 189.316406 C 225.96875 186.75 226.320312 184.136719 226.628906 181.453125 C 226.929688 178.867188 227.816406 176.402344 228.328125 173.761719 C 228.820312 171.203125 228.335938 168.441406 229.144531 165.878906 C 229.929688 163.402344 232.453125 161.734375 233.640625 159.300781 C 234.710938 156.996094 235.980469 154.78125 237.429688 152.691406 C 239.03125 150.429688 239.648438 147.699219 241.515625 145.855469 C 243.46875 143.933594 246.035156 143.160156 248.257812 141.703125 C 250.515625 140.226562 252.304688 138.339844 254.824219 137.355469 C 257.296875 136.386719 259.609375 134.894531 262.3125 134.417969 C 264.898438 133.960938 267.597656 132.335938 270.371094 132.335938 C 272.976562 132.328125 275.578125 132.488281 278.164062 132.808594 C 280.667969 133.140625 282.667969 136.441406 285.148438 137.011719 C 287.625 137.585938 289.847656 138.714844 292.269531 139.449219 C 294.71875 140.191406 297.445312 139.882812 299.8125 140.707031 C 302.253906 141.558594 304.332031 143.261719 306.664062 144.113281 C 308.863281 144.914062 311.207031 145.191406 313.273438 145.910156 C 315.53125 146.699219 318.445312 145.035156 320.496094 145.628906 C 322.730469 146.273438 324.34375 149.347656 326.761719 150.175781 C 329 150.941406 331.714844 150.585938 334.089844 151.433594 C 336.734375 152.375 338.808594 155.269531 341.558594 156.203125 C 344.292969 157.132812 348.148438 154.519531 350.867188 155.308594 C 353.71875 156.132812 356.050781 158.410156 358.753906 158.933594 C 361.769531 159.511719 364.59375 158.902344 367.246094 158.902344 C 373.242188 158.902344 376.121094 158.894531 377.410156 157.355469 C 377.671875 157.042969 378.113281 157.410156 378.375 157.097656 C 379.890625 155.28125 379.136719 151.085938 381.027344 149.101562 C 382.742188 147.304688 385.269531 145.867188 387.382812 144.265625 C 389.378906 142.753906 393.023438 143.988281 395.453125 142.917969 C 397.707031 141.925781 399.242188 138.148438 401.933594 137.757812 C 403.273438 137.566406 404.871094 139.5625 406.28125 139.5625 C 410.46875 139.5625 414.308594 138.976562 417.261719 139.652344 C 419.496094 140.160156 421.578125 140.871094 423.605469 141.347656 C 427.027344 142.152344 430.453125 141.328125 433.238281 141.902344 C 437.019531 142.6875 439.761719 145.441406 442.261719 145.441406 C 444.148438 145.441406 446.527344 145.59375 449.550781 142.46875 C 450.898438 141.078125 453.765625 139.769531 455.582031 136.855469 C 456.761719 134.96875 455.816406 131.363281 457.246094 128.640625 C 458.121094 126.96875 457.851562 124.378906 458.894531 122.105469 C 459.769531 120.195312 464.445312 119.824219 465.386719 117.707031 C 466.484375 115.246094 466.625 112.28125 467.796875 109.714844 C 468.933594 107.230469 471.070312 105.222656 472.296875 102.722656 C 473.511719 100.242188 473.273438 97.058594 474.597656 94.640625 C 475.9375 92.191406 477.65625 90.039062 479.121094 87.734375 C 480.632812 85.359375 481.882812 82.929688 483.550781 80.792969 C 485.289062 78.558594 486.472656 75.910156 488.40625 74.035156 C 490.4375 72.0625 493.492188 71.589844 495.765625 70.125 C 498.109375 68.613281 500.152344 67.066406 502.785156 66.21875 C 506.574219 65 510.03125 65.113281 513.148438 64.742188 C 515.132812 64.480469 517.078125 63.988281 518.949219 63.28125 C 521.011719 62.488281 523.992188 59.96875 526.699219 57.328125 C 528.914062 55.167969 530.710938 52.003906 533.679688 49.777344 C 536.273438 47.828125 539.648438 47.207031 543.066406 45.917969 C 545.011719 45.179688 546.894531 45.101562 549.019531 44.738281 C 551.058594 44.390625 552.886719 41.230469 555.0625 41.230469 C 557.597656 41.109375 560.136719 41.167969 562.664062 41.402344 C 565.453125 41.832031 567.84375 43.464844 569.773438 43.960938 C 572.839844 44.757812 575.222656 47.019531 577.796875 48.121094 C 580.714844 49.363281 583.855469 49.808594 586.140625 51.4375 C 588.671875 53.132812 590.941406 55.183594 592.882812 57.53125 C 594.699219 59.898438 595.617188 62.929688 596.574219 65.796875 C 597.421875 68.347656 598.382812 70.851562 598.492188 73.257812 C 598.609375 75.914062 596.148438 78.222656 595.742188 80.59375 C 595.28125 83.304688 596.757812 86.222656 596.164062 88.410156 C 595.941406 89.230469 594.234375 89.65625 594.03125 90.464844 C 593.515625 92.519531 593.457031 95.816406 593.539062 99.503906 C 593.597656 102.164062 593.566406 105.246094 593.929688 108.421875 C 594.25 111.222656 595.660156 114.058594 596.210938 117.0625 C 596.738281 119.921875 598.113281 122.640625 598.847656 125.515625 C 599.585938 128.40625 601.46875 130.835938 602.414062 133.574219 C 603.351562 136.292969 604.453125 138.953125 605.710938 141.542969 C 607.09375 144.398438 607.316406 147.464844 608.984375 149.601562 C 610.304688 151.292969 612.421875 153.964844 614.679688 153.964844 C 614.847656 153.964844 615.082031 154.984375 615.253906 154.964844 C 616.304688 154.832031 617.578125 153.300781 619.160156 152.914062 C 622.835938 152.09375 626.597656 151.707031 630.367188 151.765625 C 633.722656 151.765625 637.03125 151.308594 639.410156 152.253906 C 642.324219 153.378906 645 155.050781 647.285156 157.179688 C 650.734375 160.714844 650.679688 165.914062 651.605469 168.847656 C 651.65625 168.84375 652.167969 169.089844 652.21875 169.085938 C 655.375 168.691406 658.289062 166.722656 661.550781 165.902344 C 664.628906 165.128906 668.300781 166.175781 671.523438 165.242188 C 674.683594 164.328125 677.832031 163.292969 681.125 162.445312 C 684.308594 161.628906 687.207031 159.257812 690.566406 158.691406 C 694.625 158.003906 698.816406 158.5625 702.800781 158.5625 C 705.675781 158.5625 708.226562 160.371094 710.925781 160.726562 C 713.777344 161.105469 717.304688 158 719.921875 158.765625 C 722.671875 159.570312 725.28125 161.339844 727.738281 162.554688 C 730.339844 163.796875 732.820312 165.28125 735.140625 166.996094 C 737.367188 168.714844 739.214844 171.167969 741.015625 173.308594 C 742.703125 175.308594 742.777344 178.394531 743.964844 180.691406 C 745.152344 182.996094 746.421875 185.160156 747.09375 187.683594 C 747.757812 190.167969 748.164062 192.714844 748.308594 195.285156 C 748.453125 197.839844 747.101562 200.199219 746.746094 202.816406 C 746.402344 205.34375 747.925781 208.253906 747.109375 210.777344 C 746.289062 213.300781 743.953125 215.089844 742.746094 217.335938 C 741.5 219.664062 739.648438 221.269531 738.035156 223.253906 C 736.371094 225.292969 735.761719 228.128906 733.765625 229.753906 C 731.742188 231.402344 729.300781 232.300781 726.984375 233.46875 C 724.675781 234.632812 722.535156 236.1875 719.992188 236.816406 C 717.652344 237.371094 715.273438 237.746094 712.878906 237.9375 C 710.359375 238.164062 707.921875 237.308594 705.667969 237.367188 C 701.628906 237.46875 697.261719 237.355469 695.28125 238.425781 C 693.582031 239.34375 691.554688 241.832031 690.214844 244.410156 C 689.199219 246.367188 690.542969 249.65625 689.671875 252.054688 C 688.851562 254.296875 688.925781 256.867188 688.183594 259.117188 C 687.140625 262.304688 683.085938 264.5 681.855469 267.65625 C 680.617188 270.832031 680.164062 274.289062 678.433594 277.164062 C 677.4375 278.820312 677.082031 281.03125 675.984375 282.933594 C 674.617188 285.296875 670.878906 286.453125 669.320312 289.03125 C 667.863281 291.4375 668.960938 295.574219 667.304688 298.003906 C 665.695312 300.375 662.640625 301.761719 660.816406 304.011719 C 658.988281 306.261719 658.761719 310.121094 656.699219 312.109375 C 654.597656 314.132812 650.769531 314.222656 648.398438 315.824219 C 646 317.445312 643 317.378906 640.292969 318.414062 C 638.652344 319.039062 637.816406 321.292969 636.472656 321.6875 C 635.628906 321.933594 633.164062 320.671875 632.5625 320.910156 C 631.335938 322.28125 629.414062 325.691406 628.148438 328.90625 C 627.214844 331.28125 626.75 334.304688 625.984375 337.03125 C 625.214844 339.757812 626.210938 342.964844 625.769531 345.480469 C 625.171875 348.882812 626.8125 351.136719 627.160156 352.941406 C 628.007812 354.683594 628.828125 357.171875 631.121094 359.382812 C 632.136719 360.359375 631.664062 362.820312 632.640625 363.8125 C 634.398438 365.601562 636.003906 367.539062 637.4375 369.597656 C 638.851562 371.632812 640.027344 373.824219 640.933594 376.128906 C 642.039062 378.78125 644.933594 380.566406 645.210938 382.882812 C 645.558594 385.796875 644.425781 388.460938 644.003906 390.664062 C 643.425781 393.6875 640.800781 395.484375 640.011719 397.316406 C 639.972656 397.40625 642.457031 397.796875 642.414062 397.898438 C 642.605469 398.058594 642.820312 397.511719 643.074219 397.6875 C 644.144531 398.425781 644.6875 400.4375 646.15625 401.253906 C 648.9375 402.796875 652.402344 404.15625 655.492188 406.753906 C 657.539062 408.472656 658.703125 411.058594 660.320312 413.21875 C 661.910156 415.335938 664.625 416.910156 665.769531 419.375 C 666.878906 421.765625 665.519531 425.066406 666.1875 427.710938 C 666.828125 430.265625 669.976562 432.484375 670.179688 435.207031 C 670.375 437.832031 670.773438 440.78125 670.539062 443.503906 C 670.328125 445.914062 667.667969 447.992188 667.304688 450.246094 C 666.921875 452.617188 668.417969 455.296875 667.9375 457.542969 C 667.4375 459.875 665.863281 461.933594 665.335938 464.183594 C 664.597656 467.324219 663.8125 470.296875 663.257812 473.238281 C 662.671875 476.359375 663.984375 479.425781 663.878906 482.480469 C 663.769531 485.523438 663.3125 488.230469 663.960938 491.382812 C 664.414062 493.570312 662.835938 496.265625 663.699219 498.382812 C 664.480469 500.296875 668.011719 501.105469 669.042969 503.300781 C 669.507812 504.292969 669.203125 505.675781 669.679688 506.707031 C 670.859375 509.277344 670.53125 512.425781 671.378906 515.035156 C 672.246094 517.714844 674.96875 519.832031 675.703125 522.464844 C 676.367188 524.851562 675 527.75 675.6875 529.886719 C 676.5 532.398438 678.914062 533.867188 679.949219 535.660156 C 680.976562 537.4375 680.753906 541.53125 683.082031 543.71875 C 684.699219 545.242188 686.851562 546.304688 688.554688 548.148438 C 690.179688 549.796875 691.664062 551.578125 692.988281 553.476562 C 695.226562 556.867188 698.78125 559.082031 700.140625 562.007812 C 701.5 564.925781 700.953125 568.433594 702.488281 570.3125 C 703.921875 572.066406 706 573.378906 707.710938 575.054688 C 709.328125 576.636719 710.609375 578.6875 712.371094 580.308594 C 714.441406 582.210938 717.136719 583.664062 719.308594 585.839844 C 721.332031 587.871094 724.542969 589.089844 726.433594 591.464844 C 728.226562 593.714844 728.367188 597.289062 729.859375 599.9375 C 731.335938 602.472656 732.570312 605.144531 733.542969 607.914062 C 734.441406 610.582031 736.863281 613.152344 737.292969 616.238281 C 737.773438 619.695312 736.375 623.882812 736.730469 628.078125 C 736.929688 630.464844 736.441406 633.066406 736.699219 635.703125 C 736.898438 637.765625 737.671875 639.425781 737.882812 640.835938 C 738.1875 642.871094 740.929688 645.683594 740.722656 648.660156 C 740.558594 651.074219 739.234375 654.132812 737.871094 656.597656 C 736.75 658.625 733.976562 659.988281 731.570312 661.738281 C 727.738281 664.519531 726.824219 668.015625 725.027344 669.6875 C 723.152344 671.425781 718.917969 670.800781 715.867188 672.304688 C 713.503906 673.46875 711.296875 673.773438 707.804688 673.773438 C 705.472656 673.773438 702.996094 675.53125 699.429688 674.71875 C 696.523438 674.054688 693.316406 672.4375 689.738281 672.273438 C 686.601562 672.132812 683.234375 671.292969 679.8125 671.273438 C 677.003906 671.257812 674.125 672.878906 671.226562 672.792969 C 668.386719 672.710938 665.363281 674.261719 662.503906 673.984375 C 659.660156 673.707031 657.078125 671.261719 654.277344 670.667969 C 651.535156 669.972656 648.851562 669.0625 646.257812 667.941406 C 643.621094 666.925781 641.601562 665.132812 639.132812 663.574219 C 636.871094 662.023438 634.78125 660.234375 632.898438 658.238281 C 630.695312 656.101562 627.941406 654.78125 626.246094 652.773438 C 624.144531 650.292969 620.316406 649.167969 618.902344 648.839844 C 618.839844 648.824219 619.113281 648.847656 618.828125 648.847656 C 616.9375 648.769531 615.042969 648.941406 613.199219 649.359375 C 610.929688 649.921875 608.003906 649.019531 605.214844 649.402344 C 603.433594 649.644531 601.648438 651.683594 599.835938 651.683594 C 596.960938 651.683594 594.53125 647.742188 591.761719 647.171875 C 588.957031 646.59375 586.050781 647.203125 583.441406 646.089844 C 580.8125 644.96875 576.90625 645.832031 574.5625 644.214844 C 572.21875 642.601562 571.640625 638.640625 569.667969 636.578125 C 567.707031 634.53125 565.351562 632.792969 563.84375 630.351562 C 562.585938 628.507812 561.453125 626.582031 560.441406 624.589844 C 559.488281 622.460938 559.507812 620.042969 558.769531 618.105469 C 557.707031 615.324219 557.5 612.144531 556.320312 610.195312 C 554.875 607.804688 552.601562 604.980469 550.109375 603.515625 C 547.773438 602.140625 544.132812 602.777344 541.359375 602.035156 C 538.621094 601.300781 535.582031 602.746094 532.875 602.453125 C 529.796875 602.125 527.09375 598.972656 524.683594 598.972656 C 521.871094 598.972656 519.035156 600.519531 516.167969 600.75 C 513.335938 600.976562 510.25 599.527344 507.4375 599.9375 C 504.589844 600.355469 502.082031 602.792969 499.328125 603.363281 C 496.46875 603.953125 493.253906 602.898438 490.582031 603.609375 C 487.699219 604.378906 485.550781 607.257812 482.988281 608.109375 C 480.050781 609.089844 477.328125 609.847656 474.964844 610.863281 C 472.695312 611.839844 471.035156 613.804688 468.871094 614.988281 C 466.722656 616.167969 463.804688 615.972656 461.710938 617.308594 C 459.65625 618.621094 456.90625 618.980469 454.855469 620.402344 C 452.855469 621.789062 452.683594 625.820312 450.648438 627.269531 C 448.566406 628.75 446.167969 629.832031 444.042969 631.304688 C 441.945312 632.757812 438.605469 632.398438 436.429688 633.792969 C 434.285156 635.171875 431.5625 635.480469 429.304688 636.753906 C 427.09375 638.003906 426.011719 641.378906 423.660156 642.488281 C 421.371094 643.566406 419.328125 645.582031 416.878906 646.480469 C 414.511719 647.347656 411.59375 646.933594 409.054688 647.597656 C 406.375 648.230469 403.730469 649 401.128906 649.898438 C 398.410156 650.917969 395.148438 650.582031 392.820312 651.804688 C 390.292969 653.089844 387.855469 654.546875 385.53125 656.171875 C 383.21875 657.855469 382.984375 661.863281 381.097656 663.753906 C 379.101562 665.753906 376.222656 666.816406 374.628906 668.996094 C 372.976562 671.253906 370.558594 673.105469 369.25 675.496094 C 367.914062 677.9375 367.226562 680.785156 366.160156 683.304688 C 365.070312 685.863281 365.601562 689.027344 364.691406 691.601562 C 363.761719 694.234375 363.191406 696.9375 362.339844 699.515625 C 361.515625 702.019531 360.753906 705.109375 359.265625 707.601562 C 357.886719 709.90625 355.019531 711.503906 353.246094 713.730469 C 351.539062 715.875 349.921875 718.246094 348 720.265625 C 346.0625 722.296875 342.609375 722.75 340.605469 724.59375 C 338.476562 726.550781 337.65625 729.847656 335.628906 731.527344 C 333.277344 733.480469 331.292969 735.53125 329.347656 737 C 325.257812 740.359375 320.464844 740.742188 317.671875 740.742188 Z M 317.667969 741.355469 " fill-opacity="1" fill-rule="nonzero"/><path fill="#7ea356" d="M 301.117188 718.96875 C 303.609375 720.097656 305.855469 720.875 307.652344 721.816406 C 310.332031 723.21875 311.929688 725.132812 313.507812 725.957031 C 316.570312 727.546875 318.496094 727.558594 320.460938 725.859375 C 320.550781 725.777344 323.328125 723.808594 327.089844 720.664062 C 329.003906 719.0625 331.363281 717.339844 333.585938 715.257812 C 335.582031 713.394531 336.410156 710.210938 338.328125 708.121094 C 340.277344 705.996094 341.3125 703.410156 342.859375 701.210938 C 344.625 698.699219 349.371094 697.894531 350.15625 695.507812 C 350.964844 693.054688 351.292969 690.382812 352.207031 687.804688 C 353.074219 685.347656 352.429688 682.269531 353.460938 679.757812 C 354.457031 677.335938 357.019531 675.605469 358.230469 673.1875 C 359.402344 670.839844 361.140625 668.925781 362.566406 666.628906 C 363.953125 664.40625 363.21875 660.703125 364.898438 658.574219 C 366.511719 656.523438 369.421875 655.53125 371.351562 653.609375 C 373.1875 651.777344 374.628906 649.441406 376.792969 647.757812 C 378.828125 646.171875 381.902344 646.097656 384.261719 644.675781 C 386.460938 643.347656 388.835938 642.550781 391.34375 641.386719 C 393.671875 640.304688 395.03125 636.738281 397.644531 635.816406 C 400.0625 634.964844 402.789062 634.601562 405.472656 633.898438 C 408.164062 633.195312 410.3125 631.34375 412.816406 630.351562 C 415.375 629.332031 417.914062 628.621094 420.324219 627.367188 C 422.75 626.097656 424.769531 624.324219 427.089844 622.882812 C 429.40625 621.441406 432.152344 620.734375 434.410156 619.183594 C 436.652344 617.640625 439.59375 617.078125 441.828125 615.488281 C 444.046875 613.910156 446.042969 612 448.292969 610.441406 C 450.535156 608.890625 452.285156 606.570312 454.605469 605.105469 C 456.902344 603.652344 460.0625 603.652344 462.480469 602.34375 C 464.859375 601.050781 466.5 598.167969 469.039062 597.078125 C 471.285156 596.113281 474.203125 596.105469 476.925781 595.160156 C 479.324219 594.332031 481.609375 592.578125 484.296875 591.808594 C 486.789062 591.097656 489.4375 590.460938 492.113281 589.835938 C 494.667969 589.238281 497.75 590.960938 500.421875 590.472656 C 503.027344 589.996094 505.410156 588.105469 508.078125 587.757812 C 510.726562 587.410156 513.390625 587.113281 516.054688 586.917969 C 518.738281 586.722656 521.433594 588.578125 524.082031 588.566406 C 526.792969 588.550781 529.316406 588.59375 531.941406 588.796875 C 534.664062 589.003906 537.652344 586.445312 540.222656 586.914062 C 542.921875 587.410156 545.484375 588.625 547.957031 589.441406 C 550.566406 590.304688 553.875 590 556.15625 591.265625 C 558.535156 592.582031 560.003906 595.617188 561.941406 597.414062 C 563.882812 599.21875 564.125 602.285156 565.539062 604.621094 C 566.757812 606.636719 570.003906 607.628906 570.886719 609.820312 C 571.765625 612 571.386719 614.695312 572.273438 616.875 C 573.164062 619.0625 572.628906 622.152344 573.871094 624.15625 C 575.304688 626.476562 579.398438 626.75 581.449219 628.539062 C 583.492188 630.320312 584.777344 633.28125 587.238281 634.4375 C 589.746094 635.679688 592.40625 636.578125 595.152344 637.113281 C 597.835938 637.554688 600.710938 636.640625 603.414062 636.273438 C 606.558594 635.839844 610.054688 636.5625 613.179688 635.878906 C 616.378906 635.179688 619.078125 633.753906 622.242188 634.492188 C 624.933594 634.984375 627.460938 636.132812 629.597656 637.835938 C 631.726562 639.617188 633.707031 641.5625 635.523438 643.660156 C 637.328125 645.789062 638.21875 648.855469 640.167969 650.742188 C 642.132812 652.648438 644.894531 653.691406 647.222656 654.914062 C 649.558594 656.144531 652.671875 655.027344 655.285156 655.71875 C 657.808594 656.386719 660.003906 658.316406 662.703125 658.628906 C 665.308594 658.929688 667.898438 660.648438 670.597656 660.746094 C 673.242188 660.839844 675.953125 661.082031 678.621094 661.097656 C 681.300781 661.117188 683.953125 661.238281 686.589844 661.296875 C 689.300781 661.355469 692.042969 659.460938 694.640625 659.6875 C 697.367188 659.929688 699.667969 662.0625 702.1875 662.640625 C 706.5625 663.636719 709.578125 663.753906 711.40625 662.8125 C 713.101562 661.941406 713.066406 657.816406 716.207031 655.050781 C 717.863281 653.59375 720.667969 652.617188 723.464844 650.585938 C 725.53125 649.082031 725.421875 647.640625 724.933594 644.191406 C 724.671875 642.347656 726.199219 639.8125 725.902344 636.75 C 725.582031 633.460938 724.695312 630.402344 724.449219 627.503906 C 724.15625 624.035156 723.527344 620.886719 723.152344 618.195312 C 722.742188 615.210938 722.507812 612.113281 721.492188 609.628906 C 720.394531 606.941406 718.378906 604.578125 716.757812 602.308594 C 715.113281 600.015625 712.328125 598.644531 710.34375 596.601562 C 708.390625 594.59375 705.527344 593.566406 703.425781 591.632812 C 701.359375 589.730469 700.816406 586.164062 698.785156 584.175781 C 696.84375 582.15625 695.015625 580.03125 693.308594 577.808594 C 691.796875 575.960938 688.589844 575.277344 687.546875 573.285156 C 686.480469 571.238281 685.183594 569.257812 684.195312 567.175781 C 683.222656 565.132812 683.34375 562.65625 682.050781 560.695312 C 680.625 558.535156 678.789062 556.914062 676.9375 555.097656 C 675.089844 553.285156 672.480469 552.195312 670.679688 550.371094 C 668.84375 548.515625 669.972656 544.40625 668.679688 542.167969 C 667.378906 539.917969 662.988281 538.953125 662.070312 536.34375 C 661.203125 533.863281 664.160156 530.105469 663.429688 527.488281 C 662.703125 524.902344 658.804688 523.226562 658.015625 520.6875 C 657.257812 518.179688 656.332031 515.722656 655.25 513.339844 C 653.808594 510.199219 654.558594 506.351562 653.316406 503.394531 C 652.074219 500.4375 651.945312 497.414062 651.242188 494.003906 C 650.789062 491.617188 650.527344 489.199219 650.449219 486.773438 C 650.308594 484.195312 649.144531 481.859375 649.335938 479.390625 C 649.535156 476.855469 650.671875 474.582031 651.109375 472.117188 C 651.550781 469.636719 651.464844 467.117188 652.027344 464.65625 C 652.585938 462.210938 652.394531 459.585938 652.957031 457.113281 C 653.507812 454.679688 652.867188 452.003906 653.308594 449.496094 C 653.738281 447.054688 655.980469 444.820312 656.203125 442.261719 C 656.464844 439.265625 655.523438 436.097656 655.015625 433.101562 C 654.503906 430.078125 651.988281 427.941406 650.617188 425.273438 C 649.230469 422.570312 649.164062 419.054688 646.8125 417.078125 C 645.03125 415.488281 643.109375 414.066406 641.066406 412.832031 C 639.015625 411.683594 635.453125 412.851562 633.523438 411.519531 C 631.625 410.210938 630.742188 407.078125 629.441406 405.160156 C 628.101562 403.179688 628.890625 400.90625 629.050781 398.527344 C 629.289062 394.925781 630.320312 391.722656 631 388.175781 C 631.578125 385.160156 632.140625 381.523438 630.753906 378.769531 C 629.417969 376.121094 625.863281 374.59375 623.792969 372.484375 C 621.699219 370.351562 619.351562 368.363281 617.304688 366.171875 C 615.222656 363.945312 615.03125 360.710938 613.886719 357.898438 C 613.074219 355.910156 610.523438 353.46875 610.683594 350.007812 C 610.804688 347.429688 613.261719 344.816406 613.8125 341.832031 C 614.316406 339.125 612.792969 335.8125 613.582031 333.050781 C 614.371094 330.28125 615.640625 327.574219 616.652344 325.015625 C 617.691406 322.335938 618.925781 319.738281 620.34375 317.238281 C 622.074219 314.265625 624.984375 313.007812 626.847656 311.828125 C 629.699219 309.914062 632.738281 308.289062 635.914062 306.976562 C 638.386719 306.027344 641.925781 306.417969 644.152344 304.644531 C 646.210938 303.003906 647.390625 300.019531 649.25 297.890625 C 651.015625 295.871094 653.609375 294.300781 655.207031 292.027344 C 656.78125 289.789062 658.613281 287.578125 660.039062 285.265625 C 661.507812 282.875 660.292969 278.929688 661.617188 276.644531 C 663.078125 274.121094 666.996094 273.21875 668.292969 271.066406 C 669.613281 268.867188 667.742188 264.90625 668.777344 262.21875 C 669.730469 259.753906 670.5 257.195312 671.371094 254.542969 C 672.21875 251.960938 676.554688 250.542969 677.476562 247.980469 C 678.300781 245.445312 679.261719 242.957031 680.359375 240.523438 C 681.605469 237.996094 680.726562 234.246094 682.414062 232.210938 C 684.167969 230.085938 687.699219 230.21875 690.132812 228.902344 C 692.894531 227.410156 695.0625 224.175781 698.160156 223.839844 C 701.175781 223.507812 704.425781 224.378906 707.53125 224.277344 C 710.589844 224.25 713.632812 223.894531 716.617188 223.226562 C 719.410156 222.53125 721.367188 220.78125 723.613281 219.132812 C 725.867188 217.476562 729.660156 217.140625 731.265625 214.804688 C 732.855469 212.503906 731.984375 208.839844 732.855469 206.15625 C 733.726562 203.472656 735.050781 200.976562 735.121094 198.183594 C 735.1875 195.347656 735.511719 192.355469 734.660156 189.691406 C 733.8125 187.039062 730.796875 185.675781 728.945312 183.472656 C 727.183594 181.382812 726.171875 178.863281 723.933594 177.433594 C 721.691406 176.003906 719.589844 173.996094 717.015625 173.15625 C 714.503906 172.335938 711.460938 173.917969 708.769531 173.589844 C 706.183594 173.277344 703.574219 173.167969 700.96875 173.269531 C 698.273438 173.359375 695.601562 172.585938 692.996094 173.027344 C 690.351562 173.476562 687.714844 173.878906 685.113281 174.527344 C 682.511719 175.179688 679.835938 175.5625 677.253906 176.304688 C 674.675781 177.046875 672.167969 178.039062 669.585938 178.757812 C 666.996094 179.476562 664.523438 180.734375 661.90625 181.316406 C 659.289062 181.898438 656.667969 183.046875 654.003906 183.382812 C 651.996094 183.632812 649.558594 183.179688 647.554688 182.867188 C 645.460938 182.546875 642.277344 182.261719 640.847656 180.714844 C 639.355469 179.097656 641.558594 175.222656 640.898438 173.078125 C 640.242188 170.738281 639.082031 168.570312 637.5 166.722656 C 635.777344 164.957031 632.675781 165.980469 630.316406 165.988281 C 628.1875 165.996094 625.746094 165.234375 623.425781 165.796875 C 621.214844 166.25 618.984375 166.582031 616.738281 166.785156 C 613.9375 167.136719 611.546875 167.484375 609.070312 166.589844 C 606.609375 165.636719 604.351562 164.21875 602.421875 162.417969 C 600.527344 160.742188 597.664062 159.609375 596.019531 157.304688 C 594.535156 155.21875 594.066406 152.277344 592.785156 149.800781 C 591.59375 147.492188 590.003906 145.242188 588.992188 142.6875 C 588.019531 140.238281 586.207031 137.953125 585.402344 135.363281 C 584.609375 132.816406 586.523438 129.496094 585.890625 126.890625 C 585.253906 124.265625 583.105469 122 582.628906 119.394531 C 582.140625 116.699219 583.40625 113.816406 583.085938 111.226562 C 582.746094 108.453125 581.585938 105.910156 581.445312 103.363281 C 581.285156 100.484375 580.871094 97.8125 580.964844 95.363281 C 581.085938 92.242188 579.972656 89.195312 580.507812 87.066406 C 581.214844 84.25 581.648438 81.375 582.164062 78.5 C 582.695312 75.542969 583.285156 73.371094 582.339844 70.53125 C 581.53125 68.105469 580.25 66.972656 578.386719 65.316406 C 576.585938 63.71875 575.84375 60.53125 573.519531 59.503906 C 571.246094 58.492188 568.199219 59.722656 565.855469 59.113281 C 562.789062 58.320312 560.007812 55.488281 556.84375 55.304688 C 553.628906 55.117188 550.597656 56.746094 547.589844 57.882812 C 545.226562 58.773438 541.839844 58.207031 539.875 59.777344 C 537.945312 61.316406 535.882812 63.054688 534.082031 64.8125 C 532.28125 66.570312 530.742188 68.351562 528.816406 69.898438 C 526.855469 71.472656 525.515625 73.308594 523.164062 74.214844 C 520.570312 75.28125 517.847656 76.015625 515.070312 76.394531 C 512.21875 76.738281 509.511719 77.792969 506.792969 78.664062 C 504.480469 79.410156 501.125 79.125 499 80.859375 C 497.140625 82.382812 497.21875 86.1875 495.496094 88.289062 C 493.941406 90.1875 491.117188 91.285156 489.671875 93.523438 C 488.316406 95.621094 488.128906 98.507812 486.867188 100.796875 C 485.640625 103.023438 485.621094 105.851562 484.480469 108.160156 C 483.335938 110.476562 481.042969 112.203125 479.984375 114.507812 C 478.886719 116.898438 476.84375 118.804688 475.832031 121.074219 C 474.734375 123.539062 475.445312 126.699219 474.441406 128.894531 C 473.265625 131.46875 469.363281 132.441406 468.3125 134.441406 C 466.894531 137.148438 468.175781 141.074219 466.835938 143.238281 C 465.195312 145.898438 460.796875 146.105469 459.210938 148.027344 C 457.195312 150.46875 457.332031 154.457031 455.277344 155.875 C 452.84375 157.550781 450.035156 159.117188 447.3125 159.636719 C 444.746094 160.125 441.886719 157.316406 438.851562 157.03125 C 436.316406 156.796875 433.234375 158.832031 430.238281 158.21875 C 427.710938 157.703125 425.207031 156.0625 422.277344 155.375 C 419.726562 154.78125 417.089844 153.804688 414.183594 153.144531 C 410.878906 152.328125 407.457031 152.125 404.082031 152.542969 C 401.636719 152.8125 399.277344 153.617188 397.183594 154.910156 C 395.210938 156.222656 394.234375 158.769531 392.535156 160.574219 C 390.863281 162.351562 388.785156 163.761719 387.253906 165.589844 C 385.371094 167.839844 383.464844 170.203125 381.070312 171.460938 C 378.640625 172.734375 375.621094 173.074219 372.792969 173.507812 C 370.148438 173.914062 367.203125 175.394531 364.316406 175.222656 C 361.628906 175.058594 359.191406 171.785156 356.378906 171.246094 C 353.699219 170.726562 350.59375 171.824219 347.875 171.070312 C 345.199219 170.328125 343.085938 167.71875 340.445312 166.847656 C 337.765625 165.964844 334.050781 168.136719 331.476562 167.226562 C 328.761719 166.261719 326.566406 164.082031 324.050781 163.207031 C 321.234375 162.226562 318.878906 160.417969 316.433594 159.710938 C 313.859375 158.96875 310.613281 159.773438 307.882812 158.8125 C 305.300781 157.902344 303.410156 154.835938 300.742188 153.867188 C 298.128906 152.917969 295.421875 152.089844 292.769531 151.210938 C 290.089844 150.320312 286.960938 151.054688 284.292969 150.363281 C 281.527344 149.648438 279.191406 146.914062 276.488281 146.554688 C 273.640625 146.175781 270.730469 147.851562 268.011719 148.03125 C 265.1875 148.21875 262.390625 148.054688 259.773438 149.03125 C 257.238281 149.976562 256.046875 152.863281 253.773438 154.722656 C 251.765625 156.367188 249.464844 157.484375 247.707031 159.964844 C 246.007812 162.363281 243.195312 164.035156 242.15625 166.644531 C 241.097656 169.296875 239.242188 171.949219 238.65625 174.757812 C 238.078125 177.53125 241.21875 180.929688 240.898438 183.789062 C 240.585938 186.613281 236.871094 189.121094 236.617188 191.972656 C 236.359375 194.820312 236.066406 197.582031 235.675781 200.402344 C 235.28125 203.246094 235.425781 206.011719 234.695312 208.761719 C 233.96875 211.507812 235.589844 215.207031 234.324219 217.804688 C 233.007812 220.515625 230.878906 222.875 229.179688 224.902344 C 227.308594 227.132812 223.617188 227.207031 221.351562 228.769531 C 219.050781 230.359375 217.429688 233.046875 214.792969 234.125 C 212.25 235.160156 209.351562 235.367188 206.5625 236.089844 C 203.90625 236.78125 201.195312 237.488281 198.375 238.03125 C 195.664062 238.554688 193.21875 240.816406 190.410156 241.328125 C 187.984375 241.769531 185.109375 240.242188 182.605469 240.765625 C 180.132812 241.28125 177.902344 242.785156 175.503906 243.503906 C 173.085938 244.132812 170.722656 244.960938 168.4375 245.972656 C 166.121094 247.105469 164.847656 249.265625 162.992188 250.921875 C 161.140625 252.578125 157.742188 252.972656 156.546875 255.300781 C 154.800781 258.71875 156.234375 263.726562 154.410156 267.101562 C 152.964844 269.78125 150.1875 271.917969 147.832031 273.617188 C 145.519531 275.28125 142.867188 277.394531 140.011719 278.363281 C 137.296875 279.28125 133.753906 277.683594 130.839844 278.183594 C 127.917969 278.683594 125.257812 281.382812 122.421875 281.671875 C 119.59375 281.960938 116.386719 280.222656 113.480469 280.804688 C 110.617188 281.480469 107.816406 282.40625 105.113281 283.574219 C 102.363281 284.609375 99.792969 286.078125 97.507812 287.921875 C 95.285156 289.78125 91.84375 291.429688 90.667969 294.246094 C 89.136719 297.914062 90.921875 302.703125 90.925781 306.679688 C 90.929688 309.558594 89.972656 312.691406 90.421875 315.609375 C 90.878906 318.582031 93.082031 321.0625 94.3125 323.652344 C 95.578125 326.320312 97.785156 327.574219 100.210938 329.378906 C 102.726562 331.25 104.609375 332.5 107.507812 332.929688 C 110.335938 333.351562 113.15625 334.449219 116.214844 334.09375 C 119.085938 333.757812 121.832031 332.0625 124.796875 331.542969 C 127.730469 331.03125 130.882812 331.78125 133.796875 331.5625 C 136.804688 331.335938 140.085938 329.65625 142.957031 330.253906 C 145.777344 330.835938 148.171875 332.40625 150.34375 333.179688 C 153.144531 334.171875 154.339844 337.230469 156.191406 338.5 C 158.183594 339.746094 159.789062 341.519531 160.828125 343.625 C 162.035156 345.925781 164.398438 347.699219 164.359375 350.371094 C 164.324219 352.800781 163.398438 355.351562 162.691406 357.992188 C 162.050781 360.390625 160.101562 362.445312 159.175781 364.945312 C 158.289062 367.335938 157.65625 369.871094 156.734375 372.296875 C 155.804688 374.742188 156.519531 377.734375 155.78125 380.152344 C 155.042969 382.574219 154.519531 385.058594 154.21875 387.570312 C 153.890625 390.234375 152.738281 392.753906 153.300781 395.207031 C 153.894531 397.785156 155.441406 399.808594 156.933594 401.785156 C 158.410156 403.746094 158.871094 407.171875 160.9375 408.742188 C 162.886719 410.226562 166.746094 409.113281 168.964844 410.414062 C 171.121094 411.683594 173.445312 412.710938 175.625 413.960938 C 177.847656 415.234375 178.730469 418.570312 180.738281 419.984375 C 182.871094 421.492188 185.023438 423.066406 187.210938 424.832031 C 189.289062 426.515625 191.859375 427.65625 193.867188 429.542969 C 195.851562 431.402344 197.027344 433.980469 198.824219 436.007812 C 200.652344 438.070312 201.699219 440.480469 203.222656 442.6875 C 204.800781 444.976562 207.855469 446.199219 208.980469 448.609375 C 210.152344 451.136719 209.355469 454.074219 209.882812 456.691406 C 210.417969 459.367188 214.140625 461.976562 213.839844 464.707031 C 213.554688 467.308594 211.511719 469.988281 210.320312 472.601562 C 209.273438 474.910156 205.722656 475.710938 203.867188 478 C 202 480.308594 202.507812 484.738281 200.425781 486.921875 C 198.355469 489.097656 196.695312 491.582031 194.714844 493.804688 C 192.691406 496.070312 189.472656 497.175781 187.867188 499.664062 C 186.25 502.175781 183.828125 504.464844 182.96875 507.390625 C 182.15625 510.140625 182.796875 513.191406 181.679688 515.304688 C 180.351562 517.816406 177.410156 518.839844 175.695312 520.574219 C 173.792969 522.5 172.902344 525.761719 170.585938 526.898438 C 168.28125 528.027344 165.167969 527.238281 162.53125 527.761719 C 160.054688 528.25 157.585938 530.035156 154.878906 530.144531 C 152.347656 530.242188 149.65625 529.886719 146.964844 529.78125 C 144.410156 529.679688 141.75 529.820312 139.089844 529.636719 C 136.511719 529.457031 133.980469 528.019531 131.347656 527.859375 C 128.746094 527.699219 126.128906 526.984375 123.507812 526.933594 C 120.886719 526.882812 118.144531 525.910156 115.542969 526.058594 C 112.863281 526.246094 110.199219 526.582031 107.558594 527.070312 C 104.652344 527.578125 102.1875 530.640625 99.316406 531.542969 C 96.394531 532.457031 93.566406 533.226562 91.089844 534.808594 C 88.621094 536.414062 86.550781 538.558594 85.035156 541.082031 C 83.691406 543.214844 83.027344 545.613281 82.152344 548.078125 C 81.273438 550.5625 80.640625 553.285156 79.503906 555.492188 C 78.300781 557.832031 75.238281 558.414062 72.898438 559.734375 C 70.085938 561.328125 67.246094 562.824219 63.933594 563.105469 C 60.542969 563.390625 57.308594 563.519531 54.789062 565.671875 C 52.402344 567.714844 49.699219 570.902344 50.054688 574.019531 C 50.394531 577.003906 53.152344 580.253906 55.367188 582.289062 C 57.65625 584.390625 60.785156 585.628906 63.789062 586.4375 C 66.734375 587.230469 69.980469 587.171875 73.019531 587.273438 C 75.835938 587.367188 78.726562 588.867188 81.558594 588.765625 C 84.378906 588.660156 87.066406 585.234375 89.886719 585.097656 C 92.722656 584.960938 95.625 584.742188 98.4375 584.734375 C 101.277344 584.722656 104.121094 586.484375 106.921875 586.773438 C 109.726562 587.0625 111.984375 589.515625 114.730469 590.269531 C 117.261719 590.96875 120.59375 588.886719 122.472656 589.988281 C 124.605469 591.242188 124.324219 595.222656 125.941406 596.902344 C 127.546875 598.574219 129.742188 599.550781 131.179688 601.535156 C 132.507812 603.367188 133.664062 605.441406 135.128906 607.453125 C 136.367188 609.15625 138.839844 611.082031 138.46875 613.21875 C 138.070312 615.507812 134.25 618.234375 135.191406 619.800781 C 136.917969 622.671875 142.84375 621.46875 143.808594 623.269531 C 145.300781 626.042969 146.894531 628.527344 148.210938 630.992188 C 149.683594 633.753906 152.511719 635.488281 154.09375 637.824219 C 155.789062 640.324219 155.746094 644.445312 157.976562 646.410156 C 160.070312 648.257812 163.363281 649.316406 166.292969 650.652344 C 168.722656 651.761719 172.164062 650.691406 175.386719 651.425781 C 178.074219 652.035156 180.035156 655.1875 182.605469 655.980469 C 185.230469 656.792969 188.152344 656.492188 190.664062 657.480469 C 193.210938 658.488281 196.066406 658.796875 198.5 659.976562 C 200.957031 661.164062 203.476562 662.339844 205.824219 663.695312 C 208.183594 665.058594 208.960938 668.882812 211.21875 670.398438 C 213.472656 671.910156 215.789062 673.152344 217.953125 674.808594 C 220.105469 676.460938 223.828125 676.160156 225.894531 677.941406 C 227.949219 679.707031 228 683.660156 229.976562 685.542969 C 231.9375 687.414062 235.714844 687.441406 237.605469 689.414062 C 239.476562 691.371094 242.304688 692.539062 244.113281 694.585938 C 245.90625 696.617188 246.351562 699.863281 248.085938 701.972656 C 249.808594 704.0625 250.90625 706.664062 252.578125 708.824219 C 253.746094 710.3125 256.886719 709.972656 260.816406 710.246094 C 263.152344 710.410156 265.792969 712.4375 268.953125 712.664062 C 271.46875 712.84375 274.292969 711.890625 277.261719 712.316406 C 279.824219 712.6875 282.398438 713.707031 285.257812 714.386719 C 287.804688 714.996094 290.371094 715.777344 293.128906 716.722656 C 295.621094 717.574219 298.472656 717.777344 301.117188 718.96875 Z M 301.117188 718.96875 " fill-opacity="1" fill-rule="nonzero"/></svg>