<svg xmlns="http://www.w3.org/2000/svg" xmlns:xlink="http://www.w3.org/1999/xlink" width="40" zoomAndPan="magnify" viewBox="0 0 30 30.000001" height="40" preserveAspectRatio="xMidYMid meet" version="1.0"><defs><clipPath id="dadc5bc0e9"><path d="M 2.550781 19 L 27.230469 19 L 27.230469 29.03125 L 2.550781 29.03125 Z M 2.550781 19 " clip-rule="nonzero"/></clipPath></defs><path fill="#ffde59" d="M 23.113281 8.296875 C 23.113281 3.714844 19.433594 0 14.890625 0 C 10.351562 0 6.667969 3.714844 6.667969 8.296875 C 6.667969 14.515625 14.890625 24.886719 14.890625 24.886719 C 14.890625 24.886719 23.113281 14.515625 23.113281 8.296875 Z M 11.808594 8.296875 C 11.808594 6.578125 13.1875 5.183594 14.890625 5.183594 C 16.59375 5.183594 17.976562 6.578125 17.976562 8.296875 C 17.976562 10.011719 16.59375 11.40625 14.890625 11.40625 C 13.1875 11.40625 11.808594 10.011719 11.808594 8.296875 Z M 11.808594 8.296875 " fill-opacity="1" fill-rule="nonzero"/><g clip-path="url(#dadc5bc0e9)"><path fill="#ffde59" d="M 21.132812 19.382812 C 20.753906 20.027344 20.375 20.640625 20 21.226562 C 23.207031 21.859375 25.171875 22.996094 25.171875 23.847656 C 25.171875 25.089844 21.070312 26.957031 14.890625 26.957031 C 8.710938 26.957031 4.613281 25.089844 4.613281 23.847656 C 4.613281 22.996094 6.574219 21.859375 9.78125 21.226562 C 9.40625 20.636719 9.027344 20.023438 8.648438 19.378906 C 5.148438 20.15625 2.554688 21.644531 2.554688 23.847656 C 2.554688 27.253906 8.761719 29.03125 14.890625 29.03125 C 21.019531 29.03125 27.226562 27.253906 27.226562 23.847656 C 27.226562 21.644531 24.632812 20.15625 21.132812 19.382812 Z M 21.132812 19.382812 " fill-opacity="1" fill-rule="nonzero"/></g></svg>